<svg width="743" height="554" viewBox="0 0 743 554" fill="none" xmlns="http://www.w3.org/2000/svg">
<g filter="url(#filter0_d)">
<rect x="7" y="1" width="728.5" height="540" rx="20" fill="white"/>
<path d="M40.696 55.312C43.816 55.312 46.552 53.68 47.944 51.208L46 50.104C45.04 51.928 43 53.128 40.696 53.128C36.76 53.128 34.12 50.272 34.12 46.6C34.12 42.904 36.76 40.048 40.696 40.048C43 40.048 45.04 41.248 46 43.096L47.944 41.968C46.528 39.496 43.792 37.888 40.696 37.888C35.56 37.888 31.912 41.752 31.912 46.6C31.912 51.424 35.56 55.312 40.696 55.312ZM58.6062 43V49.36C58.6062 52.192 57.0462 53.32 55.1262 53.32C53.2782 53.32 52.1502 52.216 52.1502 50.248V43H50.0622V50.368C50.0622 53.44 51.9102 55.312 54.7182 55.312C56.3982 55.312 57.7182 54.688 58.6062 53.272V55H60.6942V43H58.6062ZM65.6731 46.24C65.6731 45.16 66.7291 44.632 67.8091 44.632C68.8651 44.632 69.9211 45.088 70.3771 46.168L72.1291 45.184C71.3611 43.624 69.7771 42.688 67.8091 42.688C65.3851 42.688 63.5611 44.152 63.5611 46.264C63.5611 50.608 70.2811 49.144 70.2811 51.712C70.2811 52.888 69.1771 53.344 67.9051 53.344C66.4171 53.344 65.3131 52.624 64.9291 51.472L63.1291 52.504C63.8251 54.16 65.5051 55.312 67.9051 55.312C70.4731 55.312 72.3931 53.944 72.3931 51.712C72.3931 47.296 65.6731 48.808 65.6731 46.24ZM81.3933 45.016V43H78.2013V39.64L76.1133 40.264V43H73.7373V45.016H76.1133V51.52C76.1133 54.52 77.7933 55.48 81.3933 55V53.128C79.2573 53.224 78.2013 53.344 78.2013 51.52V45.016H81.3933ZM89.5756 55.312C93.0796 55.312 95.9116 52.552 95.9116 49C95.9116 45.448 93.0796 42.688 89.5756 42.688C86.0716 42.688 83.2636 45.448 83.2636 49C83.2636 52.552 86.0716 55.312 89.5756 55.312ZM89.5756 53.272C87.1996 53.272 85.3516 51.424 85.3516 49C85.3516 46.576 87.1996 44.728 89.5756 44.728C91.9756 44.728 93.8236 46.576 93.8236 49C93.8236 51.424 91.9756 53.272 89.5756 53.272ZM111.333 42.688C109.773 42.688 108.405 43.36 107.565 44.728C106.869 43.432 105.669 42.688 104.037 42.688C102.573 42.688 101.325 43.264 100.461 44.608V43H98.3731V55H100.461V48.328C100.461 45.736 101.925 44.68 103.533 44.68C105.093 44.68 106.077 45.712 106.077 47.608V55H108.165V48.328C108.165 45.736 109.437 44.68 111.117 44.68C112.701 44.68 113.757 45.712 113.757 47.608V55H115.845V47.536C115.845 44.536 113.997 42.688 111.333 42.688ZM134.676 38.2V45.064C133.716 43.6 132.18 42.688 130.14 42.688C126.804 42.688 124.068 45.448 124.068 49C124.068 52.552 126.804 55.312 130.14 55.312C132.18 55.312 133.716 54.4 134.676 52.936V55H136.764V38.2H134.676ZM130.404 53.296C128.004 53.296 126.156 51.448 126.156 49C126.156 46.552 128.004 44.704 130.404 44.704C132.828 44.704 134.676 46.552 134.676 49C134.676 51.448 132.828 53.296 130.404 53.296ZM149.864 43V45.064C148.904 43.6 147.368 42.688 145.328 42.688C141.992 42.688 139.256 45.448 139.256 49C139.256 52.552 141.992 55.312 145.328 55.312C147.368 55.312 148.904 54.4 149.864 52.936V55H151.952V43H149.864ZM145.592 53.296C143.192 53.296 141.344 51.448 141.344 49C141.344 46.552 143.192 44.704 145.592 44.704C148.016 44.704 149.864 46.552 149.864 49C149.864 51.448 148.016 53.296 145.592 53.296ZM156.915 46.24C156.915 45.16 157.971 44.632 159.051 44.632C160.107 44.632 161.163 45.088 161.619 46.168L163.371 45.184C162.603 43.624 161.019 42.688 159.051 42.688C156.627 42.688 154.803 44.152 154.803 46.264C154.803 50.608 161.523 49.144 161.523 51.712C161.523 52.888 160.419 53.344 159.147 53.344C157.659 53.344 156.555 52.624 156.171 51.472L154.371 52.504C155.067 54.16 156.747 55.312 159.147 55.312C161.715 55.312 163.635 53.944 163.635 51.712C163.635 47.296 156.915 48.808 156.915 46.24ZM172.083 42.688C170.403 42.688 169.083 43.312 168.195 44.728V38.2H166.107V55H168.195V48.64C168.195 45.808 169.755 44.68 171.675 44.68C173.523 44.68 174.651 45.784 174.651 47.752V55H176.739V47.632C176.739 44.56 174.891 42.688 172.083 42.688ZM186.278 42.688C184.238 42.688 182.702 43.6 181.742 45.064V38.2H179.654V55H181.742V52.936C182.702 54.4 184.238 55.312 186.278 55.312C189.614 55.312 192.35 52.552 192.35 49C192.35 45.448 189.614 42.688 186.278 42.688ZM186.014 53.296C183.59 53.296 181.742 51.448 181.742 49C181.742 46.552 183.59 44.704 186.014 44.704C188.414 44.704 190.262 46.552 190.262 49C190.262 51.448 188.414 53.296 186.014 53.296ZM200.482 55.312C203.986 55.312 206.818 52.552 206.818 49C206.818 45.448 203.986 42.688 200.482 42.688C196.978 42.688 194.17 45.448 194.17 49C194.17 52.552 196.978 55.312 200.482 55.312ZM200.482 53.272C198.106 53.272 196.258 51.424 196.258 49C196.258 46.576 198.106 44.728 200.482 44.728C202.882 44.728 204.73 46.576 204.73 49C204.73 51.424 202.882 53.272 200.482 53.272ZM219.215 43V45.064C218.255 43.6 216.719 42.688 214.679 42.688C211.343 42.688 208.607 45.448 208.607 49C208.607 52.552 211.343 55.312 214.679 55.312C216.719 55.312 218.255 54.4 219.215 52.936V55H221.303V43H219.215ZM214.943 53.296C212.543 53.296 210.695 51.448 210.695 49C210.695 46.552 212.543 44.704 214.943 44.704C217.367 44.704 219.215 46.552 219.215 49C219.215 51.448 217.367 53.296 214.943 53.296ZM226.555 45.016V43H224.467V55H226.555V48.64C226.555 45.808 228.499 44.896 230.299 44.968V42.784C228.787 42.784 227.323 43.336 226.555 45.016ZM242.278 38.2V45.064C241.318 43.6 239.782 42.688 237.742 42.688C234.406 42.688 231.67 45.448 231.67 49C231.67 52.552 234.406 55.312 237.742 55.312C239.782 55.312 241.318 54.4 242.278 52.936V55H244.366V38.2H242.278ZM238.006 53.296C235.606 53.296 233.758 51.448 233.758 49C233.758 46.552 235.606 44.704 238.006 44.704C240.43 44.704 242.278 46.552 242.278 49C242.278 51.448 240.43 53.296 238.006 53.296Z" fill="#9591A1"/>
<rect x="31" y="93" width="680.5" height="424" rx="12" fill="#F7F7F7"/>
<g filter="url(#filter1_d)">
<path d="M47 117C47 112.582 50.5817 109 55 109H188C192.418 109 196 112.582 196 117V177C196 181.418 192.418 185 188 185H55C50.5817 185 47 181.418 47 177V117Z" fill="white"/>
<path d="M73.38 162.16C73.38 159.5 71.34 158.74 69.44 158.02V154.06C70.26 154.24 70.86 154.74 71.22 155.64L73.16 154.52C72.44 152.88 71.06 152 69.44 151.78V150H68.14V151.76C66.06 151.96 64.24 153.32 64.24 155.68C64.24 158.24 66.2 159.1 68.14 159.82V163.98C66.84 163.84 66.02 163.14 65.58 162.02L63.6 163.16C64.3 164.98 65.92 166.1 68.14 166.24V168H69.44V166.22C71.72 165.94 73.38 164.48 73.38 162.16ZM66.54 155.68C66.54 154.78 67.16 154.18 68.14 154.02V157.5C67.02 156.98 66.54 156.52 66.54 155.68ZM69.44 163.96V160.32C70.46 160.78 71.08 161.24 71.08 162.18C71.08 163.04 70.54 163.74 69.44 163.96ZM79.4366 156.7H79.1766L82.3766 152H79.7566L75.3166 158.66C74.7766 159.44 74.4766 160.4 74.4766 161.48C74.4766 164.3 76.5166 166.26 79.4366 166.26C82.3366 166.26 84.3766 164.3 84.3766 161.48C84.3766 158.66 82.3366 156.7 79.4366 156.7ZM79.4366 164.08C77.8966 164.08 76.7766 163.08 76.7766 161.48C76.7766 159.88 77.8966 158.88 79.4366 158.88C80.9566 158.88 82.0766 159.88 82.0766 161.48C82.0766 163.06 80.9566 164.08 79.4366 164.08ZM90.375 157.28H88.615L88.855 154.16H94.535V152H86.735L86.195 159.52H90.275C91.795 159.52 92.835 160.36 92.835 161.76C92.835 163.16 91.795 164.02 90.235 164.02C88.775 164.02 87.815 163.36 87.455 162.12L85.475 163.26C86.215 165.28 88.115 166.26 90.235 166.26C92.815 166.26 95.135 164.7 95.135 161.76C95.135 158.84 92.915 157.28 90.375 157.28ZM96.3934 166H105.613V163.78H99.8134L102.973 160.62C104.313 159.26 105.353 157.8 105.353 156.06C105.353 153.28 103.173 151.74 100.873 151.74C99.0134 151.74 97.2534 152.66 96.3534 154.58L98.2934 155.72C98.8334 154.6 99.7334 153.98 100.893 153.98C102.093 153.98 103.053 154.74 103.053 156.14C103.053 157.2 102.273 158.22 101.273 159.22L96.3934 164.2V166ZM116.459 166L111.899 160.9L116.299 156H113.659L109.779 160.42V152H107.619V166H109.779V161.38L113.879 166H116.459Z" fill="#9591A1"/>
<path d="M149 153C149 148.582 152.582 145 157 145H172C176.418 145 180 148.582 180 153V165C180 169.418 176.418 173 172 173H157C152.582 173 149 169.418 149 165V153Z" fill="#1EFFAE"/>
<path d="M160.934 157.89H159.284V156.25H158.074V157.89H156.434V159.1H158.074V160.75H159.284V159.1H160.934V157.89ZM161.581 155V156.32H164.571L162.271 162H163.731L166.101 156.17V155H161.581ZM168.494 158.16C169.464 158.16 170.174 157.43 170.174 156.51C170.174 155.58 169.454 154.86 168.494 154.86C167.524 154.86 166.804 155.6 166.804 156.51C166.804 157.43 167.524 158.16 168.494 158.16ZM167.514 160.94L168.114 161.29L172.684 156.21L172.074 155.87L167.514 160.94ZM168.484 157.15C168.124 157.15 167.864 156.87 167.864 156.51C167.864 156.16 168.124 155.88 168.484 155.88C168.854 155.88 169.114 156.16 169.114 156.51C169.114 156.86 168.854 157.15 168.484 157.15ZM171.874 162.12C172.844 162.12 173.554 161.38 173.554 160.47C173.554 159.56 172.844 158.82 171.874 158.82C170.904 158.82 170.194 159.56 170.194 160.47C170.194 161.38 170.904 162.12 171.874 162.12ZM171.874 161.11C171.504 161.11 171.254 160.83 171.254 160.47C171.254 160.11 171.504 159.83 171.874 159.83C172.244 159.83 172.494 160.11 172.494 160.47C172.494 160.81 172.244 161.11 171.874 161.11Z" fill="white"/>
<path d="M70.64 138H71.76L69.366 133.954C70.584 133.604 71.48 132.47 71.48 131.14C71.48 129.516 70.164 128.2 68.54 128.2H64.62V138H65.6V134.08H68.344L70.64 138ZM65.6 129.124H68.54C69.618 129.124 70.5 130.02 70.5 131.14C70.5 132.246 69.618 133.156 68.54 133.156H65.6V129.124ZM75.9035 130.832C73.7335 130.832 72.2495 132.442 72.2495 134.5C72.2495 136.614 73.7615 138.168 75.9735 138.168C77.3875 138.168 78.4655 137.51 79.0535 136.558L78.2415 136.082C77.8635 136.754 77.0935 137.272 75.9875 137.272C74.5035 137.272 73.3975 136.39 73.2015 134.962H79.3475C79.3615 134.822 79.3755 134.668 79.3755 134.528C79.3755 132.61 78.0455 130.832 75.9035 130.832ZM75.9035 131.728C77.1075 131.728 78.2275 132.526 78.4235 134.066H73.2015C73.3835 132.694 74.4335 131.728 75.9035 131.728ZM85.6118 131L83.1618 137.034L80.7118 131H79.7318L82.6018 138H83.7218L86.5918 131H85.6118ZM90.6691 130.832C88.4991 130.832 87.0151 132.442 87.0151 134.5C87.0151 136.614 88.5271 138.168 90.7391 138.168C92.1531 138.168 93.2311 137.51 93.8191 136.558L93.0071 136.082C92.6291 136.754 91.8591 137.272 90.7531 137.272C89.2691 137.272 88.1631 136.39 87.9671 134.962H94.1131C94.1271 134.822 94.1411 134.668 94.1411 134.528C94.1411 132.61 92.8111 130.832 90.6691 130.832ZM90.6691 131.728C91.8731 131.728 92.9931 132.526 93.1891 134.066H87.9671C88.1491 132.694 89.1991 131.728 90.6691 131.728ZM98.8869 130.832C97.8929 130.832 97.0809 131.21 96.5349 132.092V131H95.6109V138H96.5349V134.332C96.5349 132.456 97.5709 131.728 98.8029 131.728C100.021 131.728 100.707 132.456 100.707 133.702V138H101.631V133.702C101.631 131.952 100.595 130.832 98.8869 130.832ZM108.346 131V134.668C108.346 136.544 107.31 137.272 106.078 137.272C104.86 137.272 104.174 136.544 104.174 135.298V131H103.25V135.298C103.25 137.048 104.285 138.168 105.994 138.168C106.988 138.168 107.8 137.79 108.346 136.908V138H109.27V131H108.346ZM114.458 130.832C112.288 130.832 110.804 132.442 110.804 134.5C110.804 136.614 112.316 138.168 114.528 138.168C115.942 138.168 117.02 137.51 117.608 136.558L116.796 136.082C116.418 136.754 115.648 137.272 114.542 137.272C113.058 137.272 111.952 136.39 111.756 134.962H117.902C117.916 134.822 117.93 134.668 117.93 134.528C117.93 132.61 116.6 130.832 114.458 130.832ZM114.458 131.728C115.662 131.728 116.782 132.526 116.978 134.066H111.756C111.938 132.694 112.988 131.728 114.458 131.728Z" fill="#9591A1"/>
</g>
<g filter="url(#filter2_d)">
<rect x="208" y="109" width="149" height="76" rx="8" fill="white"/>
<path d="M224.62 166H233.84V163.78H228.04L231.2 160.62C232.54 159.26 233.58 157.8 233.58 156.06C233.58 153.28 231.4 151.74 229.1 151.74C227.24 151.74 225.48 152.66 224.58 154.58L226.52 155.72C227.06 154.6 227.96 153.98 229.12 153.98C230.32 153.98 231.28 154.74 231.28 156.14C231.28 157.2 230.5 158.22 229.5 159.22L224.62 164.2V166ZM244.986 156.52C244.986 153.7 242.946 151.74 240.046 151.74C237.146 151.74 235.086 153.7 235.086 156.52C235.086 159.34 237.146 161.3 240.046 161.3H240.286L237.086 166H239.726L244.146 159.34C244.686 158.56 244.986 157.6 244.986 156.52ZM237.386 156.52C237.386 154.92 238.526 153.92 240.046 153.92C241.566 153.92 242.686 154.92 242.686 156.52C242.686 158.12 241.566 159.12 240.046 159.12C238.526 159.12 237.386 158.1 237.386 156.52ZM249.424 152L245.744 153.3L246.304 155.26L249.124 154.46V166H251.424V152H249.424ZM263.026 166L258.466 160.9L262.866 156H260.226L256.346 160.42V152H254.186V166H256.346V161.38L260.446 166H263.026Z" fill="#9591A1"/>
<path d="M312 153C312 148.582 315.582 145 320 145H333C337.418 145 341 148.582 341 153V165C341 169.418 337.418 173 333 173H320C315.582 173 312 169.418 312 165V153Z" fill="#FF3377"/>
<path d="M319.088 159.6H322.838V158.36H319.088V159.6ZM325.436 155L323.596 155.65L323.936 156.83L325.256 156.46V162H326.636V155H325.436ZM329.494 158.16C330.464 158.16 331.174 157.43 331.174 156.51C331.174 155.58 330.454 154.86 329.494 154.86C328.524 154.86 327.804 155.6 327.804 156.51C327.804 157.43 328.524 158.16 329.494 158.16ZM328.514 160.94L329.114 161.29L333.684 156.21L333.074 155.87L328.514 160.94ZM329.484 157.15C329.124 157.15 328.864 156.87 328.864 156.51C328.864 156.16 329.124 155.88 329.484 155.88C329.854 155.88 330.114 156.16 330.114 156.51C330.114 156.86 329.854 157.15 329.484 157.15ZM332.874 162.12C333.844 162.12 334.554 161.38 334.554 160.47C334.554 159.56 333.844 158.82 332.874 158.82C331.904 158.82 331.194 159.56 331.194 160.47C331.194 161.38 331.904 162.12 332.874 162.12ZM332.874 161.11C332.504 161.11 332.254 160.83 332.254 160.47C332.254 160.11 332.504 159.83 332.874 159.83C333.244 159.83 333.494 160.11 333.494 160.47C333.494 160.81 333.244 161.11 332.874 161.11Z" fill="white"/>
<path d="M230.198 138.168C232.032 138.168 233.642 137.202 234.44 135.746L233.572 135.256C232.97 136.432 231.668 137.216 230.198 137.216C227.72 137.216 226.04 135.382 226.04 133.1C226.04 130.818 227.72 128.984 230.198 128.984C231.668 128.984 232.97 129.768 233.572 130.944L234.44 130.44C233.628 128.984 232.018 128.032 230.198 128.032C227.188 128.032 225.06 130.3 225.06 133.1C225.06 135.9 227.188 138.168 230.198 138.168ZM235.912 138H236.836V127.78H235.912V138ZM239.258 129.516C239.636 129.516 239.93 129.208 239.93 128.844C239.93 128.48 239.636 128.172 239.258 128.172C238.88 128.172 238.586 128.48 238.586 128.844C238.586 129.208 238.88 129.516 239.258 129.516ZM238.796 138H239.72V131H238.796V138ZM244.943 138.168C246.315 138.168 247.505 137.454 248.079 136.348L247.309 135.9C246.861 136.712 246.007 137.272 244.943 137.272C243.389 137.272 242.185 136.054 242.185 134.5C242.185 132.946 243.389 131.728 244.943 131.728C245.993 131.728 246.875 132.274 247.253 133.1L248.009 132.666C247.505 131.56 246.329 130.832 244.943 130.832C242.829 130.832 241.261 132.428 241.261 134.5C241.261 136.572 242.829 138.168 244.943 138.168ZM255.062 138L251.31 134.36L254.922 131H253.662L250.33 134.094V128.2H249.406V138H250.33V134.626L253.83 138H255.062ZM256.491 132.834C256.491 132.078 257.233 131.728 257.961 131.728C258.633 131.728 259.347 131.994 259.641 132.708L260.411 132.26C260.005 131.392 259.109 130.832 257.961 130.832C256.561 130.832 255.567 131.714 255.567 132.834C255.567 135.41 259.655 134.416 259.655 136.152C259.655 136.978 258.871 137.272 258.045 137.272C257.107 137.272 256.379 136.81 256.127 136.096L255.343 136.558C255.693 137.454 256.645 138.168 258.045 138.168C259.543 138.168 260.579 137.342 260.579 136.152C260.579 133.576 256.491 134.57 256.491 132.834Z" fill="#9591A1"/>
</g>
<g filter="url(#filter3_d)">
<path d="M369 117C369 112.582 372.582 109 377 109H505C509.418 109 513 112.582 513 117V177C513 181.418 509.418 185 505 185H377C372.582 185 369 181.418 369 177V117Z" fill="white"/>
<path d="M390.5 157.28H388.74L388.98 154.16H394.66V152H386.86L386.32 159.52H390.4C391.92 159.52 392.96 160.36 392.96 161.76C392.96 163.16 391.92 164.02 390.36 164.02C388.9 164.02 387.94 163.36 387.58 162.12L385.6 163.26C386.34 165.28 388.24 166.26 390.36 166.26C392.94 166.26 395.26 164.7 395.26 161.76C395.26 158.84 393.04 157.28 390.5 157.28ZM406.298 156.52C406.298 153.7 404.258 151.74 401.358 151.74C398.458 151.74 396.398 153.7 396.398 156.52C396.398 159.34 398.458 161.3 401.358 161.3H401.598L398.398 166H401.038L405.458 159.34C405.998 158.56 406.298 157.6 406.298 156.52ZM398.698 156.52C398.698 154.92 399.838 153.92 401.358 153.92C402.878 153.92 403.998 154.92 403.998 156.52C403.998 158.12 402.878 159.12 401.358 159.12C399.838 159.12 398.698 158.1 398.698 156.52ZM409.357 166.24C410.177 166.24 410.857 165.56 410.857 164.74C410.857 163.9 410.177 163.24 409.357 163.24C408.517 163.24 407.857 163.9 407.857 164.74C407.857 165.56 408.517 166.24 409.357 166.24ZM412.195 152V154.2H418.595L413.755 166H416.175L421.095 154V152H412.195ZM430.159 158.72C431.119 158.1 431.759 157.1 431.759 155.76C431.759 153.06 429.639 151.74 427.319 151.74C424.979 151.74 422.879 153.06 422.879 155.76C422.879 157.1 423.519 158.1 424.459 158.72C423.179 159.44 422.399 160.66 422.399 162.12C422.399 164.72 424.399 166.26 427.319 166.26C430.239 166.26 432.219 164.72 432.219 162.12C432.219 160.64 431.459 159.44 430.159 158.72ZM427.319 153.92C428.479 153.92 429.459 154.56 429.459 155.86C429.459 157.1 428.479 157.8 427.319 157.8C426.139 157.8 425.179 157.1 425.179 155.86C425.179 154.56 426.139 153.92 427.319 153.92ZM427.319 164.08C425.799 164.08 424.699 163.32 424.699 161.9C424.699 160.46 425.799 159.72 427.319 159.72C428.819 159.72 429.919 160.46 429.919 161.9C429.919 163.32 428.819 164.08 427.319 164.08ZM447.71 152H445.25L441.01 159L436.79 152H434.31V166H436.61V156L440.87 163.06H441.15L445.41 156.02V166H447.71V152Z" fill="#9591A1"/>
<path d="M482 153C482 148.582 485.582 145 490 145H505C509.418 145 513 148.582 513 153V165C513 169.418 509.418 173 505 173H490C485.582 173 482 169.418 482 165V153Z" fill="white"/>
<path d="M386.62 128.2V138H387.6V128.2H386.62ZM392.983 130.832C391.989 130.832 391.177 131.21 390.631 132.092V131H389.707V138H390.631V134.332C390.631 132.456 391.667 131.728 392.899 131.728C394.117 131.728 394.803 132.456 394.803 133.702V138H395.727V133.702C395.727 131.952 394.691 130.832 392.983 130.832ZM398.241 132.834C398.241 132.078 398.983 131.728 399.711 131.728C400.383 131.728 401.097 131.994 401.391 132.708L402.161 132.26C401.755 131.392 400.859 130.832 399.711 130.832C398.311 130.832 397.317 131.714 397.317 132.834C397.317 135.41 401.405 134.416 401.405 136.152C401.405 136.978 400.621 137.272 399.795 137.272C398.857 137.272 398.129 136.81 397.877 136.096L397.093 136.558C397.443 137.454 398.395 138.168 399.795 138.168C401.293 138.168 402.329 137.342 402.329 136.152C402.329 133.576 398.241 134.57 398.241 132.834ZM407.307 131.896V131H405.291V129.04L404.367 129.32V131H402.897V131.896H404.367V136.138C404.367 137.818 405.417 138.28 407.307 138V137.188C405.949 137.244 405.291 137.342 405.291 136.138V131.896H407.307ZM414.443 131V132.372C413.855 131.434 412.861 130.832 411.615 130.832C409.641 130.832 408.003 132.428 408.003 134.5C408.003 136.572 409.641 138.168 411.615 138.168C412.861 138.168 413.855 137.566 414.443 136.628V138H415.367V131H414.443ZM411.685 137.272C410.131 137.272 408.927 136.054 408.927 134.5C408.927 132.946 410.131 131.728 411.685 131.728C413.239 131.728 414.443 132.946 414.443 134.5C414.443 136.054 413.239 137.272 411.685 137.272ZM417.324 138H418.248V127.78H417.324V138ZM420.209 138H421.133V127.78H420.209V138ZM423.821 132.834C423.821 132.078 424.563 131.728 425.291 131.728C425.963 131.728 426.677 131.994 426.971 132.708L427.741 132.26C427.335 131.392 426.439 130.832 425.291 130.832C423.891 130.832 422.897 131.714 422.897 132.834C422.897 135.41 426.985 134.416 426.985 136.152C426.985 136.978 426.201 137.272 425.375 137.272C424.437 137.272 423.709 136.81 423.457 136.096L422.673 136.558C423.023 137.454 423.975 138.168 425.375 138.168C426.873 138.168 427.909 137.342 427.909 136.152C427.909 133.576 423.821 134.57 423.821 132.834Z" fill="#9591A1"/>
</g>
<g filter="url(#filter4_d)">
<path d="M525 117C525 112.582 528.582 109 533 109H687.5C691.918 109 695.5 112.582 695.5 117V177C695.5 181.418 691.918 185 687.5 185H533C528.582 185 525 181.418 525 177V117Z" fill="white"/>
<path d="M546.5 157.28H544.74L544.98 154.16H550.66V152H542.86L542.32 159.52H546.4C547.92 159.52 548.96 160.36 548.96 161.76C548.96 163.16 547.92 164.02 546.36 164.02C544.9 164.02 543.94 163.36 543.58 162.12L541.6 163.26C542.34 165.28 544.24 166.26 546.36 166.26C548.94 166.26 551.26 164.7 551.26 161.76C551.26 158.84 549.04 157.28 546.5 157.28ZM557.398 157.28H555.638L555.878 154.16H561.558V152H553.758L553.218 159.52H557.298C558.818 159.52 559.858 160.36 559.858 161.76C559.858 163.16 558.818 164.02 557.258 164.02C555.798 164.02 554.838 163.36 554.478 162.12L552.498 163.26C553.238 165.28 555.138 166.26 557.258 166.26C559.838 166.26 562.158 164.7 562.158 161.76C562.158 158.84 559.938 157.28 557.398 157.28ZM568.257 156.7H567.997L571.197 152H568.577L564.137 158.66C563.597 159.44 563.297 160.4 563.297 161.48C563.297 164.3 565.337 166.26 568.257 166.26C571.157 166.26 573.197 164.3 573.197 161.48C573.197 158.66 571.157 156.7 568.257 156.7ZM568.257 164.08C566.717 164.08 565.597 163.08 565.597 161.48C565.597 159.88 566.717 158.88 568.257 158.88C569.777 158.88 570.897 159.88 570.897 161.48C570.897 163.06 569.777 164.08 568.257 164.08ZM585.655 166L579.795 158.82L585.455 152H582.715L577.395 158.28V152H575.095V166H577.395V159.34L582.915 166H585.655Z" fill="#9591A1"/>
<path d="M618 153C618 148.582 621.582 145 626 145H641C645.418 145 649 148.582 649 153V165C649 169.418 645.418 173 641 173H626C621.582 173 618 169.418 618 165V153Z" fill="white"/>
<path d="M548.92 128.2V136.18L543.46 128.2H542.62V138H543.6V130.02L549.06 138H549.9V128.2H548.92ZM555.258 138.168C557.302 138.168 558.94 136.572 558.94 134.5C558.94 132.428 557.302 130.832 555.258 130.832C553.214 130.832 551.576 132.428 551.576 134.5C551.576 136.572 553.214 138.168 555.258 138.168ZM555.258 137.272C553.704 137.272 552.5 136.054 552.5 134.5C552.5 132.946 553.704 131.728 555.258 131.728C556.812 131.728 558.016 132.946 558.016 134.5C558.016 136.054 556.812 137.272 555.258 137.272ZM563.762 130.832C562.768 130.832 561.956 131.21 561.41 132.092V131H560.486V138H561.41V134.332C561.41 132.456 562.446 131.728 563.678 131.728C564.896 131.728 565.582 132.456 565.582 133.702V138H566.506V133.702C566.506 131.952 565.47 130.832 563.762 130.832ZM568.433 134.122H573.473V133.226H568.433V134.122ZM578.828 138.168C580.872 138.168 582.51 136.572 582.51 134.5C582.51 132.428 580.872 130.832 578.828 130.832C576.784 130.832 575.146 132.428 575.146 134.5C575.146 136.572 576.784 138.168 578.828 138.168ZM578.828 137.272C577.274 137.272 576.07 136.054 576.07 134.5C576.07 132.946 577.274 131.728 578.828 131.728C580.382 131.728 581.586 132.946 581.586 134.5C581.586 136.054 580.382 137.272 578.828 137.272ZM584.98 132.162V131H584.056V138H584.98V134.108C584.98 132.372 586.072 131.784 587.192 131.784V130.888C586.296 130.888 585.47 131.182 584.98 132.162ZM594.055 131V132.372C593.467 131.434 592.473 130.832 591.227 130.832C589.253 130.832 587.615 132.428 587.615 134.5C587.615 136.572 589.253 138.168 591.227 138.168C592.473 138.168 593.467 137.566 594.055 136.628V137.72C594.055 139.148 593.089 140.072 591.465 140.072C589.953 140.072 589.309 139.512 588.959 138.798L588.147 139.26C588.693 140.352 589.855 140.968 591.465 140.968C593.271 140.968 594.979 139.848 594.979 137.72V131H594.055ZM591.297 137.272C589.743 137.272 588.539 136.054 588.539 134.5C588.539 132.946 589.743 131.728 591.297 131.728C592.851 131.728 594.055 132.946 594.055 134.5C594.055 136.054 592.851 137.272 591.297 137.272ZM602.955 131V132.372C602.367 131.434 601.373 130.832 600.127 130.832C598.153 130.832 596.515 132.428 596.515 134.5C596.515 136.572 598.153 138.168 600.127 138.168C601.373 138.168 602.367 137.566 602.955 136.628V138H603.879V131H602.955ZM600.197 137.272C598.643 137.272 597.439 136.054 597.439 134.5C597.439 132.946 598.643 131.728 600.197 131.728C601.751 131.728 602.955 132.946 602.955 134.5C602.955 136.054 601.751 137.272 600.197 137.272ZM609.111 130.832C608.117 130.832 607.305 131.21 606.759 132.092V131H605.835V138H606.759V134.332C606.759 132.456 607.795 131.728 609.027 131.728C610.245 131.728 610.931 132.456 610.931 133.702V138H611.855V133.702C611.855 131.952 610.819 130.832 609.111 130.832ZM614.104 129.516C614.482 129.516 614.776 129.208 614.776 128.844C614.776 128.48 614.482 128.172 614.104 128.172C613.726 128.172 613.432 128.48 613.432 128.844C613.432 129.208 613.726 129.516 614.104 129.516ZM613.642 138H614.566V131H613.642V138ZM619.789 138.168C621.161 138.168 622.351 137.454 622.925 136.348L622.155 135.9C621.707 136.712 620.853 137.272 619.789 137.272C618.235 137.272 617.031 136.054 617.031 134.5C617.031 132.946 618.235 131.728 619.789 131.728C620.839 131.728 621.721 132.274 622.099 133.1L622.855 132.666C622.351 131.56 621.175 130.832 619.789 130.832C617.675 130.832 616.107 132.428 616.107 134.5C616.107 136.572 617.675 138.168 619.789 138.168ZM628.213 129.516C628.591 129.516 628.885 129.208 628.885 128.844C628.885 128.48 628.591 128.172 628.213 128.172C627.835 128.172 627.541 128.48 627.541 128.844C627.541 129.208 627.835 129.516 628.213 129.516ZM627.751 138H628.675V131H627.751V138ZM633.912 130.832C632.918 130.832 632.106 131.21 631.56 132.092V131H630.636V138H631.56V134.332C631.56 132.456 632.596 131.728 633.828 131.728C635.046 131.728 635.732 132.456 635.732 133.702V138H636.656V133.702C636.656 131.952 635.62 130.832 633.912 130.832ZM639.171 132.834C639.171 132.078 639.913 131.728 640.641 131.728C641.313 131.728 642.027 131.994 642.321 132.708L643.091 132.26C642.685 131.392 641.789 130.832 640.641 130.832C639.241 130.832 638.247 131.714 638.247 132.834C638.247 135.41 642.335 134.416 642.335 136.152C642.335 136.978 641.551 137.272 640.725 137.272C639.787 137.272 639.059 136.81 638.807 136.096L638.023 136.558C638.373 137.454 639.325 138.168 640.725 138.168C642.223 138.168 643.259 137.342 643.259 136.152C643.259 133.576 639.171 134.57 639.171 132.834ZM648.237 131.896V131H646.221V129.04L645.297 129.32V131H643.827V131.896H645.297V136.138C645.297 137.818 646.347 138.28 648.237 138V137.188C646.879 137.244 646.221 137.342 646.221 136.138V131.896H648.237ZM655.373 131V132.372C654.785 131.434 653.791 130.832 652.545 130.832C650.571 130.832 648.933 132.428 648.933 134.5C648.933 136.572 650.571 138.168 652.545 138.168C653.791 138.168 654.785 137.566 655.373 136.628V138H656.297V131H655.373ZM652.615 137.272C651.061 137.272 649.857 136.054 649.857 134.5C649.857 132.946 651.061 131.728 652.615 131.728C654.169 131.728 655.373 132.946 655.373 134.5C655.373 136.054 654.169 137.272 652.615 137.272ZM658.253 138H659.177V127.78H658.253V138ZM661.138 138H662.062V127.78H661.138V138ZM664.751 132.834C664.751 132.078 665.493 131.728 666.221 131.728C666.893 131.728 667.607 131.994 667.901 132.708L668.671 132.26C668.265 131.392 667.369 130.832 666.221 130.832C664.821 130.832 663.827 131.714 663.827 132.834C663.827 135.41 667.915 134.416 667.915 136.152C667.915 136.978 667.131 137.272 666.305 137.272C665.367 137.272 664.639 136.81 664.387 136.096L663.603 136.558C663.953 137.454 664.905 138.168 666.305 138.168C667.803 138.168 668.839 137.342 668.839 136.152C668.839 133.576 664.751 134.57 664.751 132.834Z" fill="#9591A1"/>
</g>
<g filter="url(#filter5_d)">
<path d="M47 216.5C47 212.082 50.5817 208.5 55 208.5H343C347.418 208.5 351 212.082 351 216.5V481.5C351 485.918 347.418 489.5 343 489.5H55C50.5817 489.5 47 485.918 47 481.5V216.5Z" fill="white"/>
<path d="M68.628 241.668C71.484 241.668 73.696 239.4 73.696 236.6C73.696 233.8 71.484 231.532 68.628 231.532C65.772 231.532 63.56 233.8 63.56 236.6C63.56 239.4 65.772 241.668 68.628 241.668ZM68.628 240.716C66.304 240.716 64.54 238.882 64.54 236.6C64.54 234.318 66.304 232.484 68.628 232.484C70.952 232.484 72.716 234.318 72.716 236.6C72.716 238.882 70.952 240.716 68.628 240.716ZM76.156 235.662V234.5H75.232V241.5H76.156V237.608C76.156 235.872 77.248 235.284 78.368 235.284V234.388C77.472 234.388 76.646 234.682 76.156 235.662ZM85.2305 234.5V235.872C84.6425 234.934 83.6485 234.332 82.4025 234.332C80.4285 234.332 78.7905 235.928 78.7905 238C78.7905 240.072 80.4285 241.668 82.4025 241.668C83.6485 241.668 84.6425 241.066 85.2305 240.128V241.22C85.2305 242.648 84.2645 243.572 82.6405 243.572C81.1285 243.572 80.4845 243.012 80.1345 242.298L79.3225 242.76C79.8685 243.852 81.0305 244.468 82.6405 244.468C84.4465 244.468 86.1545 243.348 86.1545 241.22V234.5H85.2305ZM82.4725 240.772C80.9185 240.772 79.7145 239.554 79.7145 238C79.7145 236.446 80.9185 235.228 82.4725 235.228C84.0265 235.228 85.2305 236.446 85.2305 238C85.2305 239.554 84.0265 240.772 82.4725 240.772ZM94.1309 234.5V235.872C93.5429 234.934 92.5489 234.332 91.3029 234.332C89.3289 234.332 87.6909 235.928 87.6909 238C87.6909 240.072 89.3289 241.668 91.3029 241.668C92.5489 241.668 93.5429 241.066 94.1309 240.128V241.5H95.0549V234.5H94.1309ZM91.3729 240.772C89.8189 240.772 88.6149 239.554 88.6149 238C88.6149 236.446 89.8189 235.228 91.3729 235.228C92.9269 235.228 94.1309 236.446 94.1309 238C94.1309 239.554 92.9269 240.772 91.3729 240.772ZM100.287 234.332C99.2933 234.332 98.4813 234.71 97.9353 235.592V234.5H97.0113V241.5H97.9353V237.832C97.9353 235.956 98.9713 235.228 100.203 235.228C101.421 235.228 102.107 235.956 102.107 237.202V241.5H103.031V237.202C103.031 235.452 101.995 234.332 100.287 234.332ZM105.28 233.016C105.658 233.016 105.952 232.708 105.952 232.344C105.952 231.98 105.658 231.672 105.28 231.672C104.902 231.672 104.608 231.98 104.608 232.344C104.608 232.708 104.902 233.016 105.28 233.016ZM104.818 241.5H105.742V234.5H104.818V241.5ZM110.965 241.668C112.337 241.668 113.527 240.954 114.101 239.848L113.331 239.4C112.883 240.212 112.029 240.772 110.965 240.772C109.411 240.772 108.207 239.554 108.207 238C108.207 236.446 109.411 235.228 110.965 235.228C112.015 235.228 112.897 235.774 113.275 236.6L114.031 236.166C113.527 235.06 112.351 234.332 110.965 234.332C108.851 234.332 107.283 235.928 107.283 238C107.283 240.072 108.851 241.668 110.965 241.668ZM123.967 234.5L121.517 240.534L119.067 234.5H118.087L120.957 241.5H122.077L124.947 234.5H123.967ZM126.368 236.334C126.368 235.578 127.11 235.228 127.838 235.228C128.51 235.228 129.224 235.494 129.518 236.208L130.288 235.76C129.882 234.892 128.986 234.332 127.838 234.332C126.438 234.332 125.444 235.214 125.444 236.334C125.444 238.91 129.532 237.916 129.532 239.652C129.532 240.478 128.748 240.772 127.922 240.772C126.984 240.772 126.256 240.31 126.004 239.596L125.22 240.058C125.57 240.954 126.522 241.668 127.922 241.668C129.42 241.668 130.456 240.842 130.456 239.652C130.456 237.076 126.368 238.07 126.368 236.334ZM141.938 231.7V239.68L136.478 231.7H135.638V241.5H136.618V233.52L142.078 241.5H142.918V231.7H141.938ZM148.275 241.668C150.319 241.668 151.957 240.072 151.957 238C151.957 235.928 150.319 234.332 148.275 234.332C146.231 234.332 144.593 235.928 144.593 238C144.593 240.072 146.231 241.668 148.275 241.668ZM148.275 240.772C146.721 240.772 145.517 239.554 145.517 238C145.517 236.446 146.721 235.228 148.275 235.228C149.829 235.228 151.033 236.446 151.033 238C151.033 239.554 149.829 240.772 148.275 240.772ZM156.779 234.332C155.785 234.332 154.973 234.71 154.427 235.592V234.5H153.503V241.5H154.427V237.832C154.427 235.956 155.463 235.228 156.695 235.228C157.913 235.228 158.599 235.956 158.599 237.202V241.5H159.523V237.202C159.523 235.452 158.487 234.332 156.779 234.332ZM161.45 237.622H166.49V236.726H161.45V237.622ZM171.846 241.668C173.89 241.668 175.528 240.072 175.528 238C175.528 235.928 173.89 234.332 171.846 234.332C169.802 234.332 168.164 235.928 168.164 238C168.164 240.072 169.802 241.668 171.846 241.668ZM171.846 240.772C170.292 240.772 169.088 239.554 169.088 238C169.088 236.446 170.292 235.228 171.846 235.228C173.4 235.228 174.604 236.446 174.604 238C174.604 239.554 173.4 240.772 171.846 240.772ZM177.998 235.662V234.5H177.074V241.5H177.998V237.608C177.998 235.872 179.09 235.284 180.21 235.284V234.388C179.314 234.388 178.488 234.682 177.998 235.662ZM187.072 234.5V235.872C186.484 234.934 185.49 234.332 184.244 234.332C182.27 234.332 180.632 235.928 180.632 238C180.632 240.072 182.27 241.668 184.244 241.668C185.49 241.668 186.484 241.066 187.072 240.128V241.22C187.072 242.648 186.106 243.572 184.482 243.572C182.97 243.572 182.326 243.012 181.976 242.298L181.164 242.76C181.71 243.852 182.872 244.468 184.482 244.468C186.288 244.468 187.996 243.348 187.996 241.22V234.5H187.072ZM184.314 240.772C182.76 240.772 181.556 239.554 181.556 238C181.556 236.446 182.76 235.228 184.314 235.228C185.868 235.228 187.072 236.446 187.072 238C187.072 239.554 185.868 240.772 184.314 240.772ZM195.973 234.5V235.872C195.385 234.934 194.391 234.332 193.145 234.332C191.171 234.332 189.533 235.928 189.533 238C189.533 240.072 191.171 241.668 193.145 241.668C194.391 241.668 195.385 241.066 195.973 240.128V241.5H196.897V234.5H195.973ZM193.215 240.772C191.661 240.772 190.457 239.554 190.457 238C190.457 236.446 191.661 235.228 193.215 235.228C194.769 235.228 195.973 236.446 195.973 238C195.973 239.554 194.769 240.772 193.215 240.772ZM202.129 234.332C201.135 234.332 200.323 234.71 199.777 235.592V234.5H198.853V241.5H199.777V237.832C199.777 235.956 200.813 235.228 202.045 235.228C203.263 235.228 203.949 235.956 203.949 237.202V241.5H204.873V237.202C204.873 235.452 203.837 234.332 202.129 234.332ZM207.122 233.016C207.5 233.016 207.794 232.708 207.794 232.344C207.794 231.98 207.5 231.672 207.122 231.672C206.744 231.672 206.45 231.98 206.45 232.344C206.45 232.708 206.744 233.016 207.122 233.016ZM206.66 241.5H207.584V234.5H206.66V241.5ZM212.806 241.668C214.178 241.668 215.368 240.954 215.942 239.848L215.172 239.4C214.724 240.212 213.87 240.772 212.806 240.772C211.252 240.772 210.048 239.554 210.048 238C210.048 236.446 211.252 235.228 212.806 235.228C213.856 235.228 214.738 235.774 215.116 236.6L215.872 236.166C215.368 235.06 214.192 234.332 212.806 234.332C210.692 234.332 209.124 235.928 209.124 238C209.124 240.072 210.692 241.668 212.806 241.668ZM221.231 233.016C221.609 233.016 221.903 232.708 221.903 232.344C221.903 231.98 221.609 231.672 221.231 231.672C220.853 231.672 220.559 231.98 220.559 232.344C220.559 232.708 220.853 233.016 221.231 233.016ZM220.769 241.5H221.693V234.5H220.769V241.5ZM226.93 234.332C225.936 234.332 225.124 234.71 224.578 235.592V234.5H223.654V241.5H224.578V237.832C224.578 235.956 225.614 235.228 226.846 235.228C228.064 235.228 228.75 235.956 228.75 237.202V241.5H229.674V237.202C229.674 235.452 228.638 234.332 226.93 234.332ZM232.188 236.334C232.188 235.578 232.93 235.228 233.658 235.228C234.33 235.228 235.044 235.494 235.338 236.208L236.108 235.76C235.702 234.892 234.806 234.332 233.658 234.332C232.258 234.332 231.264 235.214 231.264 236.334C231.264 238.91 235.352 237.916 235.352 239.652C235.352 240.478 234.568 240.772 233.742 240.772C232.804 240.772 232.076 240.31 231.824 239.596L231.04 240.058C231.39 240.954 232.342 241.668 233.742 241.668C235.24 241.668 236.276 240.842 236.276 239.652C236.276 237.076 232.188 238.07 232.188 236.334ZM241.254 235.396V234.5H239.238V232.54L238.314 232.82V234.5H236.844V235.396H238.314V239.638C238.314 241.318 239.364 241.78 241.254 241.5V240.688C239.896 240.744 239.238 240.842 239.238 239.638V235.396H241.254ZM248.391 234.5V235.872C247.803 234.934 246.809 234.332 245.563 234.332C243.589 234.332 241.951 235.928 241.951 238C241.951 240.072 243.589 241.668 245.563 241.668C246.809 241.668 247.803 241.066 248.391 240.128V241.5H249.315V234.5H248.391ZM245.633 240.772C244.079 240.772 242.875 239.554 242.875 238C242.875 236.446 244.079 235.228 245.633 235.228C247.187 235.228 248.391 236.446 248.391 238C248.391 239.554 247.187 240.772 245.633 240.772ZM251.271 241.5H252.195V231.28H251.271V241.5ZM254.156 241.5H255.08V231.28H254.156V241.5ZM257.769 236.334C257.769 235.578 258.511 235.228 259.239 235.228C259.911 235.228 260.625 235.494 260.919 236.208L261.689 235.76C261.283 234.892 260.387 234.332 259.239 234.332C257.839 234.332 256.845 235.214 256.845 236.334C256.845 238.91 260.933 237.916 260.933 239.652C260.933 240.478 260.149 240.772 259.323 240.772C258.385 240.772 257.657 240.31 257.405 239.596L256.621 240.058C256.971 240.954 257.923 241.668 259.323 241.668C260.821 241.668 261.857 240.842 261.857 239.652C261.857 237.076 257.769 238.07 257.769 236.334Z" fill="#9591A1"/>
<path d="M63 268.5C63 264.082 66.5817 260.5 71 260.5H327C331.418 260.5 335 264.082 335 268.5V465.5C335 469.918 331.418 473.5 327 473.5H71C66.5817 473.5 63 469.918 63 465.5V268.5Z" fill="#F7F7F7"/>
<g opacity="0.4">
<line x1="322.5" y1="277" x2="77.5" y2="277" stroke="#C6C1D2" stroke-linecap="round" stroke-linejoin="round" stroke-dasharray="8 8"/>
<line x1="322.5" y1="313" x2="77.5" y2="313" stroke="#C6C1D2" stroke-linecap="round" stroke-linejoin="round" stroke-dasharray="8 8"/>
<line x1="322.5" y1="349" x2="77.5" y2="349" stroke="#C6C1D2" stroke-linecap="round" stroke-linejoin="round" stroke-dasharray="8 8"/>
<line x1="322.5" y1="385" x2="77.5" y2="385" stroke="#C6C1D2" stroke-linecap="round" stroke-linejoin="round" stroke-dasharray="8 8"/>
<line x1="322.5" y1="421" x2="77.5" y2="421" stroke="#C6C1D2" stroke-linecap="round" stroke-linejoin="round" stroke-dasharray="8 8"/>
<line x1="322.5" y1="457" x2="77.5" y2="457" stroke="#C6C1D2" stroke-linecap="round" stroke-linejoin="round" stroke-dasharray="8 8"/>
</g>
<g filter="url(#filter6_i)">
<path d="M83 420.87C83 419.009 84.5089 417.5 86.3701 417.5H111.63C113.491 417.5 115 419.009 115 420.87V457.5H83V420.87Z" fill="#00C2FF"/>
</g>
<g filter="url(#filter7_i)">
<path d="M133 380.87C133 379.009 134.509 377.5 136.37 377.5H161.63C163.491 377.5 165 379.009 165 380.87V457.5H133V380.87Z" fill="#00C2FF"/>
</g>
<g filter="url(#filter8_i)">
<path d="M233 340.87C233 339.009 234.509 337.5 236.37 337.5H261.63C263.491 337.5 265 339.009 265 340.87V457.5H233V340.87Z" fill="#00C2FF"/>
</g>
<g filter="url(#filter9_i)">
<path d="M283 330.87C283 329.009 284.509 327.5 286.37 327.5H311.63C313.491 327.5 315 329.009 315 330.87V457.5H283V330.87Z" fill="#00C2FF"/>
</g>
<g filter="url(#filter10_i)">
<path d="M183 300.87C183 299.009 184.509 297.5 186.37 297.5H211.63C213.491 297.5 215 299.009 215 300.87V457.5H183V300.87Z" fill="#00C2FF"/>
</g>
<path d="M75 435.289C94.6031 430.014 96.9094 423.896 109.209 424.107C121.509 424.318 132.08 390.139 153.989 385.287C175.898 380.434 179.934 304.72 199.153 304.72C218.372 304.72 229.711 344.463 245.662 344.463C261.614 344.463 258.862 333.254 287.882 333.254C311.098 333.254 320.872 377.832 321 374.949" stroke="#00C2FF" stroke-width="2" stroke-linecap="round" stroke-linejoin="round"/>
<path d="M75 449.976C94.6031 448.175 96.9094 446.085 109.209 446.157C121.509 446.229 132.08 434.556 153.989 432.898C175.898 431.241 179.934 417.334 199.153 417.334C218.372 417.334 229.711 437.726 245.663 437.726C261.614 437.726 262.575 432.322 291.595 432.322C314.812 432.322 320.872 430.352 321 429.368" stroke="#1EFFAE" stroke-width="2" stroke-linecap="round" stroke-linejoin="round" stroke-dasharray="2.53 4.21"/>
</g>
<g filter="url(#filter11_d)">
<rect x="367" y="197" width="327" height="304" rx="8" fill="white"/>
<path d="M387.9 220.2H384.12V230H387.9C390.602 230 392.52 227.802 392.52 225.1C392.52 222.398 390.602 220.2 387.9 220.2ZM387.9 229.076H385.1V221.124H387.9C390.084 221.124 391.568 222.902 391.568 225.1C391.568 227.298 390.084 229.076 387.9 229.076ZM400.076 223V224.372C399.488 223.434 398.494 222.832 397.248 222.832C395.274 222.832 393.636 224.428 393.636 226.5C393.636 228.572 395.274 230.168 397.248 230.168C398.494 230.168 399.488 229.566 400.076 228.628V230H401V223H400.076ZM397.318 229.272C395.764 229.272 394.56 228.054 394.56 226.5C394.56 224.946 395.764 223.728 397.318 223.728C398.872 223.728 400.076 224.946 400.076 226.5C400.076 228.054 398.872 229.272 397.318 229.272ZM403.419 221.516C403.797 221.516 404.091 221.208 404.091 220.844C404.091 220.48 403.797 220.172 403.419 220.172C403.041 220.172 402.747 220.48 402.747 220.844C402.747 221.208 403.041 221.516 403.419 221.516ZM402.957 230H403.881V223H402.957V230ZM405.841 230H406.765V219.78H405.841V230ZM413.766 223L411.498 228.866L408.866 223H407.886L411.022 230.042L410.84 230.476C410.462 231.386 409.832 232.03 408.922 231.932V232.8C410.182 232.898 411.218 231.988 411.75 230.644L414.746 223H413.766ZM425.383 223V224.372C424.795 223.434 423.801 222.832 422.555 222.832C420.581 222.832 418.943 224.428 418.943 226.5C418.943 228.572 420.581 230.168 422.555 230.168C423.801 230.168 424.795 229.566 425.383 228.628V230H426.307V223H425.383ZM422.625 229.272C421.071 229.272 419.867 228.054 419.867 226.5C419.867 224.946 421.071 223.728 422.625 223.728C424.179 223.728 425.383 224.946 425.383 226.5C425.383 228.054 424.179 229.272 422.625 229.272ZM431.525 230.168C432.897 230.168 434.087 229.454 434.661 228.348L433.891 227.9C433.443 228.712 432.589 229.272 431.525 229.272C429.971 229.272 428.767 228.054 428.767 226.5C428.767 224.946 429.971 223.728 431.525 223.728C432.575 223.728 433.457 224.274 433.835 225.1L434.591 224.666C434.087 223.56 432.911 222.832 431.525 222.832C429.411 222.832 427.843 224.428 427.843 226.5C427.843 228.572 429.411 230.168 431.525 230.168ZM439.698 223.896V223H437.682V221.04L436.758 221.32V223H435.288V223.896H436.758V228.138C436.758 229.818 437.808 230.28 439.698 230V229.188C438.34 229.244 437.682 229.342 437.682 228.138V223.896H439.698ZM441.7 221.516C442.078 221.516 442.372 221.208 442.372 220.844C442.372 220.48 442.078 220.172 441.7 220.172C441.322 220.172 441.028 220.48 441.028 220.844C441.028 221.208 441.322 221.516 441.7 221.516ZM441.238 230H442.162V223H441.238V230ZM449.163 223L446.713 229.034L444.263 223H443.283L446.153 230H447.273L450.143 223H449.163ZM454.22 222.832C452.05 222.832 450.566 224.442 450.566 226.5C450.566 228.614 452.078 230.168 454.29 230.168C455.704 230.168 456.782 229.51 457.37 228.558L456.558 228.082C456.18 228.754 455.41 229.272 454.304 229.272C452.82 229.272 451.714 228.39 451.518 226.962H457.664C457.678 226.822 457.692 226.668 457.692 226.528C457.692 224.61 456.362 222.832 454.22 222.832ZM454.22 223.728C455.424 223.728 456.544 224.526 456.74 226.066H451.518C451.7 224.694 452.75 223.728 454.22 223.728ZM467.59 223V226.668C467.59 228.544 466.554 229.272 465.322 229.272C464.104 229.272 463.418 228.544 463.418 227.298V223H462.494V227.298C462.494 229.048 463.53 230.168 465.238 230.168C466.232 230.168 467.044 229.79 467.59 228.908V230H468.514V223H467.59ZM471.196 224.834C471.196 224.078 471.938 223.728 472.666 223.728C473.338 223.728 474.052 223.994 474.346 224.708L475.116 224.26C474.71 223.392 473.814 222.832 472.666 222.832C471.266 222.832 470.272 223.714 470.272 224.834C470.272 227.41 474.36 226.416 474.36 228.152C474.36 228.978 473.576 229.272 472.75 229.272C471.812 229.272 471.084 228.81 470.832 228.096L470.048 228.558C470.398 229.454 471.35 230.168 472.75 230.168C474.248 230.168 475.284 229.342 475.284 228.152C475.284 225.576 471.196 226.57 471.196 224.834ZM479.855 222.832C477.685 222.832 476.201 224.442 476.201 226.5C476.201 228.614 477.713 230.168 479.925 230.168C481.339 230.168 482.417 229.51 483.005 228.558L482.193 228.082C481.815 228.754 481.045 229.272 479.939 229.272C478.455 229.272 477.349 228.39 477.153 226.962H483.299C483.313 226.822 483.327 226.668 483.327 226.528C483.327 224.61 481.997 222.832 479.855 222.832ZM479.855 223.728C481.059 223.728 482.179 224.526 482.375 226.066H477.153C477.335 224.694 478.385 223.728 479.855 223.728ZM485.72 224.162V223H484.796V230H485.72V226.108C485.72 224.372 486.812 223.784 487.932 223.784V222.888C487.036 222.888 486.21 223.182 485.72 224.162ZM489.653 224.834C489.653 224.078 490.395 223.728 491.123 223.728C491.795 223.728 492.509 223.994 492.803 224.708L493.573 224.26C493.167 223.392 492.271 222.832 491.123 222.832C489.723 222.832 488.729 223.714 488.729 224.834C488.729 227.41 492.817 226.416 492.817 228.152C492.817 228.978 492.033 229.272 491.207 229.272C490.269 229.272 489.541 228.81 489.289 228.096L488.505 228.558C488.855 229.454 489.807 230.168 491.207 230.168C492.705 230.168 493.741 229.342 493.741 228.152C493.741 225.576 489.653 226.57 489.653 224.834Z" fill="#9591A1"/>
<rect x="383" y="249" width="295" height="236" rx="8" fill="#F7F7F7"/>
<g opacity="0.4">
<line x1="663.5" y1="265.5" x2="435.5" y2="265.5" stroke="#C6C1D2" stroke-linecap="round" stroke-linejoin="round" stroke-dasharray="8 8"/>
<line x1="663.5" y1="301.5" x2="435.5" y2="301.5" stroke="#C6C1D2" stroke-linecap="round" stroke-linejoin="round" stroke-dasharray="8 8"/>
<line x1="663.5" y1="337.5" x2="435.5" y2="337.5" stroke="#C6C1D2" stroke-linecap="round" stroke-linejoin="round" stroke-dasharray="8 8"/>
<line x1="663.5" y1="373.5" x2="435.5" y2="373.5" stroke="#C6C1D2" stroke-linecap="round" stroke-linejoin="round" stroke-dasharray="8 8"/>
<line x1="663.5" y1="409.5" x2="435.5" y2="409.5" stroke="#C6C1D2" stroke-linecap="round" stroke-linejoin="round" stroke-dasharray="8 8"/>
<line x1="663.5" y1="445.5" x2="435.5" y2="445.5" stroke="#C6C1D2" stroke-linecap="round" stroke-linejoin="round" stroke-dasharray="8 8"/>
</g>
<path opacity="0.3" d="M397.385 265.238H396.323L396.458 263.294H399.275V262.7H395.9L395.675 265.85H397.385C398.204 265.85 398.87 266.3 398.87 267.173C398.87 268.046 398.204 268.496 397.385 268.496C396.665 268.496 396.071 268.154 395.891 267.461L395.36 267.767C395.639 268.658 396.476 269.108 397.385 269.108C398.492 269.108 399.5 268.424 399.5 267.173C399.5 265.922 398.492 265.238 397.385 265.238ZM401.305 268.235H400.585L400.225 270.26H400.765L401.305 268.235ZM404.409 269.108C405.948 269.108 406.794 267.794 406.794 265.85C406.794 263.906 405.948 262.592 404.409 262.592C402.87 262.592 402.024 263.906 402.024 265.85C402.024 267.794 402.87 269.108 404.409 269.108ZM404.409 268.496C403.302 268.496 402.654 267.533 402.654 265.85C402.654 264.167 403.302 263.204 404.409 263.204C405.516 263.204 406.164 264.167 406.164 265.85C406.164 267.533 405.516 268.496 404.409 268.496ZM410.078 269.108C411.617 269.108 412.463 267.794 412.463 265.85C412.463 263.906 411.617 262.592 410.078 262.592C408.539 262.592 407.693 263.906 407.693 265.85C407.693 267.794 408.539 269.108 410.078 269.108ZM410.078 268.496C408.971 268.496 408.323 267.533 408.323 265.85C408.323 264.167 408.971 263.204 410.078 263.204C411.185 263.204 411.833 264.167 411.833 265.85C411.833 267.533 411.185 268.496 410.078 268.496ZM415.747 269.108C417.286 269.108 418.132 267.794 418.132 265.85C418.132 263.906 417.286 262.592 415.747 262.592C414.208 262.592 413.362 263.906 413.362 265.85C413.362 267.794 414.208 269.108 415.747 269.108ZM415.747 268.496C414.64 268.496 413.992 267.533 413.992 265.85C413.992 264.167 414.64 263.204 415.747 263.204C416.854 263.204 417.502 264.167 417.502 265.85C417.502 267.533 416.854 268.496 415.747 268.496Z" fill="#220D4E"/>
<path opacity="0.3" d="M399.995 303.146H399.185V301.22H398.555V303.146H395.918L398.258 298.7H397.565L395.225 303.146V303.74H398.555V305H399.185V303.74H399.995V303.146ZM401.841 304.235H401.121L400.761 306.26H401.301L401.841 304.235ZM404.945 305.108C406.484 305.108 407.33 303.794 407.33 301.85C407.33 299.906 406.484 298.592 404.945 298.592C403.406 298.592 402.56 299.906 402.56 301.85C402.56 303.794 403.406 305.108 404.945 305.108ZM404.945 304.496C403.838 304.496 403.19 303.533 403.19 301.85C403.19 300.167 403.838 299.204 404.945 299.204C406.052 299.204 406.7 300.167 406.7 301.85C406.7 303.533 406.052 304.496 404.945 304.496ZM410.614 305.108C412.153 305.108 412.999 303.794 412.999 301.85C412.999 299.906 412.153 298.592 410.614 298.592C409.075 298.592 408.229 299.906 408.229 301.85C408.229 303.794 409.075 305.108 410.614 305.108ZM410.614 304.496C409.507 304.496 408.859 303.533 408.859 301.85C408.859 300.167 409.507 299.204 410.614 299.204C411.721 299.204 412.369 300.167 412.369 301.85C412.369 303.533 411.721 304.496 410.614 304.496ZM416.283 305.108C417.822 305.108 418.668 303.794 418.668 301.85C418.668 299.906 417.822 298.592 416.283 298.592C414.744 298.592 413.898 299.906 413.898 301.85C413.898 303.794 414.744 305.108 416.283 305.108ZM416.283 304.496C415.176 304.496 414.528 303.533 414.528 301.85C414.528 300.167 415.176 299.204 416.283 299.204C417.39 299.204 418.038 300.167 418.038 301.85C418.038 303.533 417.39 304.496 416.283 304.496Z" fill="#220D4E"/>
<path opacity="0.3" d="M397.673 337.319L399.14 335.294V334.7H395.45V335.294H398.411L396.845 337.436L397.115 337.85H397.286L397.295 337.841V337.85C398.114 337.85 398.78 338.3 398.78 339.173C398.78 340.046 398.114 340.496 397.295 340.496C396.575 340.496 395.999 340.19 395.792 339.551L395.27 339.857C395.576 340.685 396.386 341.108 397.295 341.108C398.402 341.108 399.41 340.424 399.41 339.173C399.41 338.066 398.618 337.445 397.673 337.319ZM401.217 340.235H400.497L400.137 342.26H400.677L401.217 340.235ZM404.321 341.108C405.86 341.108 406.706 339.794 406.706 337.85C406.706 335.906 405.86 334.592 404.321 334.592C402.782 334.592 401.936 335.906 401.936 337.85C401.936 339.794 402.782 341.108 404.321 341.108ZM404.321 340.496C403.214 340.496 402.566 339.533 402.566 337.85C402.566 336.167 403.214 335.204 404.321 335.204C405.428 335.204 406.076 336.167 406.076 337.85C406.076 339.533 405.428 340.496 404.321 340.496ZM409.99 341.108C411.529 341.108 412.375 339.794 412.375 337.85C412.375 335.906 411.529 334.592 409.99 334.592C408.451 334.592 407.605 335.906 407.605 337.85C407.605 339.794 408.451 341.108 409.99 341.108ZM409.99 340.496C408.883 340.496 408.235 339.533 408.235 337.85C408.235 336.167 408.883 335.204 409.99 335.204C411.097 335.204 411.745 336.167 411.745 337.85C411.745 339.533 411.097 340.496 409.99 340.496ZM415.659 341.108C417.198 341.108 418.044 339.794 418.044 337.85C418.044 335.906 417.198 334.592 415.659 334.592C414.12 334.592 413.274 335.906 413.274 337.85C413.274 339.794 414.12 341.108 415.659 341.108ZM415.659 340.496C414.552 340.496 413.904 339.533 413.904 337.85C413.904 336.167 414.552 335.204 415.659 335.204C416.766 335.204 417.414 336.167 417.414 337.85C417.414 339.533 416.766 340.496 415.659 340.496Z" fill="#220D4E"/>
<path opacity="0.3" d="M395.36 377H399.365V376.388H396.26L398.06 374.597C398.699 373.958 399.23 373.283 399.23 372.482C399.23 371.249 398.267 370.592 397.331 370.592C396.53 370.592 395.792 370.979 395.387 371.78L395.918 372.095C396.224 371.474 396.719 371.204 397.331 371.204C397.979 371.204 398.6 371.627 398.6 372.482C398.6 373.067 398.159 373.616 397.628 374.147L395.36 376.433V377ZM401.349 376.235H400.629L400.269 378.26H400.809L401.349 376.235ZM404.453 377.108C405.992 377.108 406.838 375.794 406.838 373.85C406.838 371.906 405.992 370.592 404.453 370.592C402.914 370.592 402.068 371.906 402.068 373.85C402.068 375.794 402.914 377.108 404.453 377.108ZM404.453 376.496C403.346 376.496 402.698 375.533 402.698 373.85C402.698 372.167 403.346 371.204 404.453 371.204C405.56 371.204 406.208 372.167 406.208 373.85C406.208 375.533 405.56 376.496 404.453 376.496ZM410.122 377.108C411.661 377.108 412.507 375.794 412.507 373.85C412.507 371.906 411.661 370.592 410.122 370.592C408.583 370.592 407.737 371.906 407.737 373.85C407.737 375.794 408.583 377.108 410.122 377.108ZM410.122 376.496C409.015 376.496 408.367 375.533 408.367 373.85C408.367 372.167 409.015 371.204 410.122 371.204C411.229 371.204 411.877 372.167 411.877 373.85C411.877 375.533 411.229 376.496 410.122 376.496ZM415.791 377.108C417.33 377.108 418.176 375.794 418.176 373.85C418.176 371.906 417.33 370.592 415.791 370.592C414.252 370.592 413.406 371.906 413.406 373.85C413.406 375.794 414.252 377.108 415.791 377.108ZM415.791 376.496C414.684 376.496 414.036 375.533 414.036 373.85C414.036 372.167 414.684 371.204 415.791 371.204C416.898 371.204 417.546 372.167 417.546 373.85C417.546 375.533 416.898 376.496 415.791 376.496Z" fill="#220D4E"/>
<path opacity="0.3" d="M396.8 406.7L395.135 407.276L395.297 407.816L396.71 407.393V413H397.34V406.7H396.8ZM399.679 412.235H398.959L398.599 414.26H399.139L399.679 412.235ZM402.783 413.108C404.322 413.108 405.168 411.794 405.168 409.85C405.168 407.906 404.322 406.592 402.783 406.592C401.244 406.592 400.398 407.906 400.398 409.85C400.398 411.794 401.244 413.108 402.783 413.108ZM402.783 412.496C401.676 412.496 401.028 411.533 401.028 409.85C401.028 408.167 401.676 407.204 402.783 407.204C403.89 407.204 404.538 408.167 404.538 409.85C404.538 411.533 403.89 412.496 402.783 412.496ZM408.452 413.108C409.991 413.108 410.837 411.794 410.837 409.85C410.837 407.906 409.991 406.592 408.452 406.592C406.913 406.592 406.067 407.906 406.067 409.85C406.067 411.794 406.913 413.108 408.452 413.108ZM408.452 412.496C407.345 412.496 406.697 411.533 406.697 409.85C406.697 408.167 407.345 407.204 408.452 407.204C409.559 407.204 410.207 408.167 410.207 409.85C410.207 411.533 409.559 412.496 408.452 412.496ZM414.121 413.108C415.66 413.108 416.506 411.794 416.506 409.85C416.506 407.906 415.66 406.592 414.121 406.592C412.582 406.592 411.736 407.906 411.736 409.85C411.736 411.794 412.582 413.108 414.121 413.108ZM414.121 412.496C413.014 412.496 412.366 411.533 412.366 409.85C412.366 408.167 413.014 407.204 414.121 407.204C415.228 407.204 415.876 408.167 415.876 409.85C415.876 411.533 415.228 412.496 414.121 412.496Z" fill="#220D4E"/>
<path opacity="0.3" d="M397.835 449.108C399.374 449.108 400.22 447.794 400.22 445.85C400.22 443.906 399.374 442.592 397.835 442.592C396.296 442.592 395.45 443.906 395.45 445.85C395.45 447.794 396.296 449.108 397.835 449.108ZM397.835 448.496C396.728 448.496 396.08 447.533 396.08 445.85C396.08 444.167 396.728 443.204 397.835 443.204C398.942 443.204 399.59 444.167 399.59 445.85C399.59 447.533 398.942 448.496 397.835 448.496Z" fill="#220D4E"/>
<path opacity="0.3" d="M432.837 467.238H431.775L431.91 465.294H434.727V464.7H431.352L431.127 467.85H432.837C433.656 467.85 434.322 468.3 434.322 469.173C434.322 470.046 433.656 470.496 432.837 470.496C432.117 470.496 431.523 470.154 431.343 469.461L430.812 469.767C431.091 470.658 431.928 471.108 432.837 471.108C433.944 471.108 434.952 470.424 434.952 469.173C434.952 467.922 433.944 467.238 432.837 467.238ZM436.171 467.4C436.45 467.4 436.666 467.184 436.666 466.905C436.666 466.626 436.45 466.41 436.171 466.41C435.892 466.41 435.676 466.626 435.676 466.905C435.676 467.184 435.892 467.4 436.171 467.4ZM436.171 471.09C436.45 471.09 436.666 470.874 436.666 470.595C436.666 470.316 436.45 470.1 436.171 470.1C435.892 470.1 435.676 470.316 435.676 470.595C435.676 470.874 435.892 471.09 436.171 471.09ZM440.045 471.108C441.584 471.108 442.43 469.794 442.43 467.85C442.43 465.906 441.584 464.592 440.045 464.592C438.506 464.592 437.66 465.906 437.66 467.85C437.66 469.794 438.506 471.108 440.045 471.108ZM440.045 470.496C438.938 470.496 438.29 469.533 438.29 467.85C438.29 466.167 438.938 465.204 440.045 465.204C441.152 465.204 441.8 466.167 441.8 467.85C441.8 469.533 441.152 470.496 440.045 470.496ZM445.714 471.108C447.253 471.108 448.099 469.794 448.099 467.85C448.099 465.906 447.253 464.592 445.714 464.592C444.175 464.592 443.329 465.906 443.329 467.85C443.329 469.794 444.175 471.108 445.714 471.108ZM445.714 470.496C444.607 470.496 443.959 469.533 443.959 467.85C443.959 466.167 444.607 465.204 445.714 465.204C446.821 465.204 447.469 466.167 447.469 467.85C447.469 469.533 446.821 470.496 445.714 470.496Z" fill="#220D4E"/>
<path opacity="0.3" d="M462.837 466.95C462.666 466.95 462.495 466.968 462.333 467.004L463.881 464.7H463.17L461.109 467.769C460.866 468.111 460.722 468.534 460.722 469.029C460.722 470.262 461.613 471.108 462.837 471.108C464.061 471.108 464.952 470.262 464.952 469.029C464.952 467.796 464.061 466.95 462.837 466.95ZM462.837 470.496C461.946 470.496 461.352 469.911 461.352 469.029C461.352 468.147 461.946 467.562 462.837 467.562C463.728 467.562 464.322 468.147 464.322 469.029C464.322 469.911 463.728 470.496 462.837 470.496ZM466.171 467.4C466.45 467.4 466.666 467.184 466.666 466.905C466.666 466.626 466.45 466.41 466.171 466.41C465.892 466.41 465.676 466.626 465.676 466.905C465.676 467.184 465.892 467.4 466.171 467.4ZM466.171 471.09C466.45 471.09 466.666 470.874 466.666 470.595C466.666 470.316 466.45 470.1 466.171 470.1C465.892 470.1 465.676 470.316 465.676 470.595C465.676 470.874 465.892 471.09 466.171 471.09ZM470.045 471.108C471.584 471.108 472.43 469.794 472.43 467.85C472.43 465.906 471.584 464.592 470.045 464.592C468.506 464.592 467.66 465.906 467.66 467.85C467.66 469.794 468.506 471.108 470.045 471.108ZM470.045 470.496C468.938 470.496 468.29 469.533 468.29 467.85C468.29 466.167 468.938 465.204 470.045 465.204C471.152 465.204 471.8 466.167 471.8 467.85C471.8 469.533 471.152 470.496 470.045 470.496ZM475.714 471.108C477.253 471.108 478.099 469.794 478.099 467.85C478.099 465.906 477.253 464.592 475.714 464.592C474.175 464.592 473.329 465.906 473.329 467.85C473.329 469.794 474.175 471.108 475.714 471.108ZM475.714 470.496C474.607 470.496 473.959 469.533 473.959 467.85C473.959 466.167 474.607 465.204 475.714 465.204C476.821 465.204 477.469 466.167 477.469 467.85C477.469 469.533 476.821 470.496 475.714 470.496Z" fill="#220D4E"/>
<path opacity="0.3" d="M490.536 464.7V465.294H493.749L491.373 471H492.03L494.406 465.294V464.7H490.536ZM495.267 467.4C495.546 467.4 495.762 467.184 495.762 466.905C495.762 466.626 495.546 466.41 495.267 466.41C494.988 466.41 494.772 466.626 494.772 466.905C494.772 467.184 494.988 467.4 495.267 467.4ZM495.267 471.09C495.546 471.09 495.762 470.874 495.762 470.595C495.762 470.316 495.546 470.1 495.267 470.1C494.988 470.1 494.772 470.316 494.772 470.595C494.772 470.874 494.988 471.09 495.267 471.09ZM499.141 471.108C500.68 471.108 501.526 469.794 501.526 467.85C501.526 465.906 500.68 464.592 499.141 464.592C497.602 464.592 496.756 465.906 496.756 467.85C496.756 469.794 497.602 471.108 499.141 471.108ZM499.141 470.496C498.034 470.496 497.386 469.533 497.386 467.85C497.386 466.167 498.034 465.204 499.141 465.204C500.248 465.204 500.896 466.167 500.896 467.85C500.896 469.533 500.248 470.496 499.141 470.496ZM504.81 471.108C506.349 471.108 507.195 469.794 507.195 467.85C507.195 465.906 506.349 464.592 504.81 464.592C503.271 464.592 502.425 465.906 502.425 467.85C502.425 469.794 503.271 471.108 504.81 471.108ZM504.81 470.496C503.703 470.496 503.055 469.533 503.055 467.85C503.055 466.167 503.703 465.204 504.81 465.204C505.917 465.204 506.565 466.167 506.565 467.85C506.565 469.533 505.917 470.496 504.81 470.496Z" fill="#220D4E"/>
<path opacity="0.3" d="M522.857 467.751C523.343 467.472 523.694 466.986 523.694 466.338C523.694 465.141 522.731 464.592 521.795 464.592C520.859 464.592 519.896 465.141 519.896 466.338C519.896 466.986 520.247 467.472 520.733 467.751C520.112 468.039 519.689 468.588 519.689 469.29C519.689 470.478 520.652 471.108 521.795 471.108C522.938 471.108 523.901 470.478 523.901 469.29C523.901 468.588 523.478 468.039 522.857 467.751ZM521.795 465.204C522.443 465.204 523.064 465.519 523.064 466.338C523.064 467.103 522.443 467.472 521.795 467.472C521.147 467.472 520.526 467.103 520.526 466.338C520.526 465.519 521.147 465.204 521.795 465.204ZM521.795 470.496C520.94 470.496 520.319 470.1 520.319 469.29C520.319 468.48 520.94 468.084 521.795 468.084C522.65 468.084 523.271 468.48 523.271 469.29C523.271 470.1 522.65 470.496 521.795 470.496ZM525.294 467.4C525.573 467.4 525.789 467.184 525.789 466.905C525.789 466.626 525.573 466.41 525.294 466.41C525.015 466.41 524.799 466.626 524.799 466.905C524.799 467.184 525.015 467.4 525.294 467.4ZM525.294 471.09C525.573 471.09 525.789 470.874 525.789 470.595C525.789 470.316 525.573 470.1 525.294 470.1C525.015 470.1 524.799 470.316 524.799 470.595C524.799 470.874 525.015 471.09 525.294 471.09ZM529.168 471.108C530.707 471.108 531.553 469.794 531.553 467.85C531.553 465.906 530.707 464.592 529.168 464.592C527.629 464.592 526.783 465.906 526.783 467.85C526.783 469.794 527.629 471.108 529.168 471.108ZM529.168 470.496C528.061 470.496 527.413 469.533 527.413 467.85C527.413 466.167 528.061 465.204 529.168 465.204C530.275 465.204 530.923 466.167 530.923 467.85C530.923 469.533 530.275 470.496 529.168 470.496ZM534.837 471.108C536.376 471.108 537.222 469.794 537.222 467.85C537.222 465.906 536.376 464.592 534.837 464.592C533.298 464.592 532.452 465.906 532.452 467.85C532.452 469.794 533.298 471.108 534.837 471.108ZM534.837 470.496C533.73 470.496 533.082 469.533 533.082 467.85C533.082 466.167 533.73 465.204 534.837 465.204C535.944 465.204 536.592 466.167 536.592 467.85C536.592 469.533 535.944 470.496 534.837 470.496Z" fill="#220D4E"/>
<path opacity="0.3" d="M553.908 466.671C553.908 465.438 553.017 464.592 551.793 464.592C550.569 464.592 549.678 465.438 549.678 466.671C549.678 467.904 550.569 468.75 551.793 468.75C551.964 468.75 552.135 468.732 552.297 468.696L550.749 471H551.46L553.521 467.931C553.764 467.589 553.908 467.166 553.908 466.671ZM550.308 466.671C550.308 465.789 550.902 465.204 551.793 465.204C552.684 465.204 553.278 465.789 553.278 466.671C553.278 467.553 552.684 468.138 551.793 468.138C550.902 468.138 550.308 467.553 550.308 466.671ZM555.215 467.4C555.494 467.4 555.71 467.184 555.71 466.905C555.71 466.626 555.494 466.41 555.215 466.41C554.936 466.41 554.72 466.626 554.72 466.905C554.72 467.184 554.936 467.4 555.215 467.4ZM555.215 471.09C555.494 471.09 555.71 470.874 555.71 470.595C555.71 470.316 555.494 470.1 555.215 470.1C554.936 470.1 554.72 470.316 554.72 470.595C554.72 470.874 554.936 471.09 555.215 471.09ZM559.089 471.108C560.628 471.108 561.474 469.794 561.474 467.85C561.474 465.906 560.628 464.592 559.089 464.592C557.55 464.592 556.704 465.906 556.704 467.85C556.704 469.794 557.55 471.108 559.089 471.108ZM559.089 470.496C557.982 470.496 557.334 469.533 557.334 467.85C557.334 466.167 557.982 465.204 559.089 465.204C560.196 465.204 560.844 466.167 560.844 467.85C560.844 469.533 560.196 470.496 559.089 470.496ZM564.758 471.108C566.297 471.108 567.143 469.794 567.143 467.85C567.143 465.906 566.297 464.592 564.758 464.592C563.219 464.592 562.373 465.906 562.373 467.85C562.373 469.794 563.219 471.108 564.758 471.108ZM564.758 470.496C563.651 470.496 563.003 469.533 563.003 467.85C563.003 466.167 563.651 465.204 564.758 465.204C565.865 465.204 566.513 466.167 566.513 467.85C566.513 469.533 565.865 470.496 564.758 470.496Z" fill="#220D4E"/>
<path opacity="0.3" d="M581.23 464.7L579.565 465.276L579.727 465.816L581.14 465.393V471H581.77V464.7H581.23ZM585.324 471.108C586.863 471.108 587.709 469.794 587.709 467.85C587.709 465.906 586.863 464.592 585.324 464.592C583.785 464.592 582.939 465.906 582.939 467.85C582.939 469.794 583.785 471.108 585.324 471.108ZM585.324 470.496C584.217 470.496 583.569 469.533 583.569 467.85C583.569 466.167 584.217 465.204 585.324 465.204C586.431 465.204 587.079 466.167 587.079 467.85C587.079 469.533 586.431 470.496 585.324 470.496ZM589.193 467.4C589.472 467.4 589.688 467.184 589.688 466.905C589.688 466.626 589.472 466.41 589.193 466.41C588.914 466.41 588.698 466.626 588.698 466.905C588.698 467.184 588.914 467.4 589.193 467.4ZM589.193 471.09C589.472 471.09 589.688 470.874 589.688 470.595C589.688 470.316 589.472 470.1 589.193 470.1C588.914 470.1 588.698 470.316 588.698 470.595C588.698 470.874 588.914 471.09 589.193 471.09ZM593.067 471.108C594.606 471.108 595.452 469.794 595.452 467.85C595.452 465.906 594.606 464.592 593.067 464.592C591.528 464.592 590.682 465.906 590.682 467.85C590.682 469.794 591.528 471.108 593.067 471.108ZM593.067 470.496C591.96 470.496 591.312 469.533 591.312 467.85C591.312 466.167 591.96 465.204 593.067 465.204C594.174 465.204 594.822 466.167 594.822 467.85C594.822 469.533 594.174 470.496 593.067 470.496ZM598.736 471.108C600.275 471.108 601.121 469.794 601.121 467.85C601.121 465.906 600.275 464.592 598.736 464.592C597.197 464.592 596.351 465.906 596.351 467.85C596.351 469.794 597.197 471.108 598.736 471.108ZM598.736 470.496C597.629 470.496 596.981 469.533 596.981 467.85C596.981 466.167 597.629 465.204 598.736 465.204C599.843 465.204 600.491 466.167 600.491 467.85C600.491 469.533 599.843 470.496 598.736 470.496Z" fill="#220D4E"/>
<path opacity="0.3" d="M615.035 464.7L613.37 465.276L613.532 465.816L614.945 465.393V471H615.575V464.7H615.035ZM618.094 464.7L616.429 465.276L616.591 465.816L618.004 465.393V471H618.634V464.7H618.094ZM620.388 467.4C620.667 467.4 620.883 467.184 620.883 466.905C620.883 466.626 620.667 466.41 620.388 466.41C620.109 466.41 619.893 466.626 619.893 466.905C619.893 467.184 620.109 467.4 620.388 467.4ZM620.388 471.09C620.667 471.09 620.883 470.874 620.883 470.595C620.883 470.316 620.667 470.1 620.388 470.1C620.109 470.1 619.893 470.316 619.893 470.595C619.893 470.874 620.109 471.09 620.388 471.09ZM624.262 471.108C625.801 471.108 626.647 469.794 626.647 467.85C626.647 465.906 625.801 464.592 624.262 464.592C622.723 464.592 621.877 465.906 621.877 467.85C621.877 469.794 622.723 471.108 624.262 471.108ZM624.262 470.496C623.155 470.496 622.507 469.533 622.507 467.85C622.507 466.167 623.155 465.204 624.262 465.204C625.369 465.204 626.017 466.167 626.017 467.85C626.017 469.533 625.369 470.496 624.262 470.496ZM629.931 471.108C631.47 471.108 632.316 469.794 632.316 467.85C632.316 465.906 631.47 464.592 629.931 464.592C628.392 464.592 627.546 465.906 627.546 467.85C627.546 469.794 628.392 471.108 629.931 471.108ZM629.931 470.496C628.824 470.496 628.176 469.533 628.176 467.85C628.176 466.167 628.824 465.204 629.931 465.204C631.038 465.204 631.686 466.167 631.686 467.85C631.686 469.533 631.038 470.496 629.931 470.496Z" fill="#220D4E"/>
<path opacity="0.3" d="M646.2 464.7L644.535 465.276L644.697 465.816L646.11 465.393V471H646.74V464.7H646.2ZM647.819 471H651.824V470.388H648.719L650.519 468.597C651.158 467.958 651.689 467.283 651.689 466.482C651.689 465.249 650.726 464.592 649.79 464.592C648.989 464.592 648.251 464.979 647.846 465.78L648.377 466.095C648.683 465.474 649.178 465.204 649.79 465.204C650.438 465.204 651.059 465.627 651.059 466.482C651.059 467.067 650.618 467.616 650.087 468.147L647.819 470.433V471ZM653.223 467.4C653.502 467.4 653.718 467.184 653.718 466.905C653.718 466.626 653.502 466.41 653.223 466.41C652.944 466.41 652.728 466.626 652.728 466.905C652.728 467.184 652.944 467.4 653.223 467.4ZM653.223 471.09C653.502 471.09 653.718 470.874 653.718 470.595C653.718 470.316 653.502 470.1 653.223 470.1C652.944 470.1 652.728 470.316 652.728 470.595C652.728 470.874 652.944 471.09 653.223 471.09ZM657.097 471.108C658.636 471.108 659.482 469.794 659.482 467.85C659.482 465.906 658.636 464.592 657.097 464.592C655.558 464.592 654.712 465.906 654.712 467.85C654.712 469.794 655.558 471.108 657.097 471.108ZM657.097 470.496C655.99 470.496 655.342 469.533 655.342 467.85C655.342 466.167 655.99 465.204 657.097 465.204C658.204 465.204 658.852 466.167 658.852 467.85C658.852 469.533 658.204 470.496 657.097 470.496ZM662.766 471.108C664.305 471.108 665.151 469.794 665.151 467.85C665.151 465.906 664.305 464.592 662.766 464.592C661.227 464.592 660.381 465.906 660.381 467.85C660.381 469.794 661.227 471.108 662.766 471.108ZM662.766 470.496C661.659 470.496 661.011 469.533 661.011 467.85C661.011 466.167 661.659 465.204 662.766 465.204C663.873 465.204 664.521 466.167 664.521 467.85C664.521 469.533 663.873 470.496 662.766 470.496Z" fill="#220D4E"/>
<path d="M435 396.535L464.545 386.08L494.089 409L528.707 386.08L563.623 360.346H590.482L623.01 352.304L663 294" stroke="#00C2FF" stroke-width="2" stroke-linecap="round" stroke-linejoin="round"/>
<path d="M435 409L465.141 403.82L494.089 392.266H530.199L560.937 381.109L596.152 375.531L626.293 389.875L663 358" stroke="#1EFFAE" stroke-width="2" stroke-linecap="round" stroke-linejoin="round" stroke-dasharray="8.29 8.29"/>
</g>
</g>
<defs>
<filter id="filter0_d" x="0" y="0" width="742.5" height="554" filterUnits="userSpaceOnUse" color-interpolation-filters="sRGB">
<feFlood flood-opacity="0" result="BackgroundImageFix"/>
<feColorMatrix in="SourceAlpha" type="matrix" values="0 0 0 0 0 0 0 0 0 0 0 0 0 0 0 0 0 0 127 0" result="hardAlpha"/>
<feMorphology radius="3" operator="erode" in="SourceAlpha" result="effect1_dropShadow"/>
<feOffset dy="6"/>
<feGaussianBlur stdDeviation="5"/>
<feColorMatrix type="matrix" values="0 0 0 0 0.0968 0 0 0 0 0.08 0 0 0 0 0.2 0 0 0 0.1 0"/>
<feBlend mode="normal" in2="BackgroundImageFix" result="effect1_dropShadow"/>
<feBlend mode="normal" in="SourceGraphic" in2="effect1_dropShadow" result="shape"/>
</filter>
<filter id="filter1_d" x="45" y="108" width="153" height="80" filterUnits="userSpaceOnUse" color-interpolation-filters="sRGB">
<feFlood flood-opacity="0" result="BackgroundImageFix"/>
<feColorMatrix in="SourceAlpha" type="matrix" values="0 0 0 0 0 0 0 0 0 0 0 0 0 0 0 0 0 0 127 0" result="hardAlpha"/>
<feOffset dy="1"/>
<feGaussianBlur stdDeviation="1"/>
<feColorMatrix type="matrix" values="0 0 0 0 0 0 0 0 0 0.2015 0 0 0 0 0.3875 0 0 0 0.1 0"/>
<feBlend mode="normal" in2="BackgroundImageFix" result="effect1_dropShadow"/>
<feBlend mode="normal" in="SourceGraphic" in2="effect1_dropShadow" result="shape"/>
</filter>
<filter id="filter2_d" x="206" y="108" width="153" height="80" filterUnits="userSpaceOnUse" color-interpolation-filters="sRGB">
<feFlood flood-opacity="0" result="BackgroundImageFix"/>
<feColorMatrix in="SourceAlpha" type="matrix" values="0 0 0 0 0 0 0 0 0 0 0 0 0 0 0 0 0 0 127 0" result="hardAlpha"/>
<feOffset dy="1"/>
<feGaussianBlur stdDeviation="1"/>
<feColorMatrix type="matrix" values="0 0 0 0 0 0 0 0 0 0.2015 0 0 0 0 0.3875 0 0 0 0.1 0"/>
<feBlend mode="normal" in2="BackgroundImageFix" result="effect1_dropShadow"/>
<feBlend mode="normal" in="SourceGraphic" in2="effect1_dropShadow" result="shape"/>
</filter>
<filter id="filter3_d" x="367" y="108" width="148" height="80" filterUnits="userSpaceOnUse" color-interpolation-filters="sRGB">
<feFlood flood-opacity="0" result="BackgroundImageFix"/>
<feColorMatrix in="SourceAlpha" type="matrix" values="0 0 0 0 0 0 0 0 0 0 0 0 0 0 0 0 0 0 127 0" result="hardAlpha"/>
<feOffset dy="1"/>
<feGaussianBlur stdDeviation="1"/>
<feColorMatrix type="matrix" values="0 0 0 0 0 0 0 0 0 0.2015 0 0 0 0 0.3875 0 0 0 0.1 0"/>
<feBlend mode="normal" in2="BackgroundImageFix" result="effect1_dropShadow"/>
<feBlend mode="normal" in="SourceGraphic" in2="effect1_dropShadow" result="shape"/>
</filter>
<filter id="filter4_d" x="523" y="108" width="174.5" height="80" filterUnits="userSpaceOnUse" color-interpolation-filters="sRGB">
<feFlood flood-opacity="0" result="BackgroundImageFix"/>
<feColorMatrix in="SourceAlpha" type="matrix" values="0 0 0 0 0 0 0 0 0 0 0 0 0 0 0 0 0 0 127 0" result="hardAlpha"/>
<feOffset dy="1"/>
<feGaussianBlur stdDeviation="1"/>
<feColorMatrix type="matrix" values="0 0 0 0 0 0 0 0 0 0.2015 0 0 0 0 0.3875 0 0 0 0.1 0"/>
<feBlend mode="normal" in2="BackgroundImageFix" result="effect1_dropShadow"/>
<feBlend mode="normal" in="SourceGraphic" in2="effect1_dropShadow" result="shape"/>
</filter>
<filter id="filter5_d" x="45" y="207.5" width="308" height="285" filterUnits="userSpaceOnUse" color-interpolation-filters="sRGB">
<feFlood flood-opacity="0" result="BackgroundImageFix"/>
<feColorMatrix in="SourceAlpha" type="matrix" values="0 0 0 0 0 0 0 0 0 0 0 0 0 0 0 0 0 0 127 0" result="hardAlpha"/>
<feOffset dy="1"/>
<feGaussianBlur stdDeviation="1"/>
<feColorMatrix type="matrix" values="0 0 0 0 0 0 0 0 0 0.2015 0 0 0 0 0.3875 0 0 0 0.1 0"/>
<feBlend mode="normal" in2="BackgroundImageFix" result="effect1_dropShadow"/>
<feBlend mode="normal" in="SourceGraphic" in2="effect1_dropShadow" result="shape"/>
</filter>
<filter id="filter6_i" x="83" y="417.5" width="32" height="40" filterUnits="userSpaceOnUse" color-interpolation-filters="sRGB">
<feFlood flood-opacity="0" result="BackgroundImageFix"/>
<feBlend mode="normal" in="SourceGraphic" in2="BackgroundImageFix" result="shape"/>
<feColorMatrix in="SourceAlpha" type="matrix" values="0 0 0 0 0 0 0 0 0 0 0 0 0 0 0 0 0 0 127 0" result="hardAlpha"/>
<feOffset dy="26.2144"/>
<feComposite in2="hardAlpha" operator="arithmetic" k2="-1" k3="1"/>
<feColorMatrix type="matrix" values="0 0 0 0 0.116667 0 0 0 0 1 0 0 0 0 0.682 0 0 0 1 0"/>
<feBlend mode="normal" in2="shape" result="effect1_innerShadow"/>
</filter>
<filter id="filter7_i" x="133" y="377.5" width="32" height="80" filterUnits="userSpaceOnUse" color-interpolation-filters="sRGB">
<feFlood flood-opacity="0" result="BackgroundImageFix"/>
<feBlend mode="normal" in="SourceGraphic" in2="BackgroundImageFix" result="shape"/>
<feColorMatrix in="SourceAlpha" type="matrix" values="0 0 0 0 0 0 0 0 0 0 0 0 0 0 0 0 0 0 127 0" result="hardAlpha"/>
<feOffset dy="26.2144"/>
<feComposite in2="hardAlpha" operator="arithmetic" k2="-1" k3="1"/>
<feColorMatrix type="matrix" values="0 0 0 0 0.116667 0 0 0 0 1 0 0 0 0 0.682 0 0 0 1 0"/>
<feBlend mode="normal" in2="shape" result="effect1_innerShadow"/>
</filter>
<filter id="filter8_i" x="233" y="337.5" width="32" height="120" filterUnits="userSpaceOnUse" color-interpolation-filters="sRGB">
<feFlood flood-opacity="0" result="BackgroundImageFix"/>
<feBlend mode="normal" in="SourceGraphic" in2="BackgroundImageFix" result="shape"/>
<feColorMatrix in="SourceAlpha" type="matrix" values="0 0 0 0 0 0 0 0 0 0 0 0 0 0 0 0 0 0 127 0" result="hardAlpha"/>
<feOffset dy="26.2144"/>
<feComposite in2="hardAlpha" operator="arithmetic" k2="-1" k3="1"/>
<feColorMatrix type="matrix" values="0 0 0 0 0.116667 0 0 0 0 1 0 0 0 0 0.682 0 0 0 1 0"/>
<feBlend mode="normal" in2="shape" result="effect1_innerShadow"/>
</filter>
<filter id="filter9_i" x="283" y="327.5" width="32" height="130" filterUnits="userSpaceOnUse" color-interpolation-filters="sRGB">
<feFlood flood-opacity="0" result="BackgroundImageFix"/>
<feBlend mode="normal" in="SourceGraphic" in2="BackgroundImageFix" result="shape"/>
<feColorMatrix in="SourceAlpha" type="matrix" values="0 0 0 0 0 0 0 0 0 0 0 0 0 0 0 0 0 0 127 0" result="hardAlpha"/>
<feOffset dy="26.2144"/>
<feComposite in2="hardAlpha" operator="arithmetic" k2="-1" k3="1"/>
<feColorMatrix type="matrix" values="0 0 0 0 0.116667 0 0 0 0 1 0 0 0 0 0.682 0 0 0 1 0"/>
<feBlend mode="normal" in2="shape" result="effect1_innerShadow"/>
</filter>
<filter id="filter10_i" x="183" y="297.5" width="32" height="160" filterUnits="userSpaceOnUse" color-interpolation-filters="sRGB">
<feFlood flood-opacity="0" result="BackgroundImageFix"/>
<feBlend mode="normal" in="SourceGraphic" in2="BackgroundImageFix" result="shape"/>
<feColorMatrix in="SourceAlpha" type="matrix" values="0 0 0 0 0 0 0 0 0 0 0 0 0 0 0 0 0 0 127 0" result="hardAlpha"/>
<feOffset dy="42.5984"/>
<feComposite in2="hardAlpha" operator="arithmetic" k2="-1" k3="1"/>
<feColorMatrix type="matrix" values="0 0 0 0 0.116667 0 0 0 0 1 0 0 0 0 0.682 0 0 0 1 0"/>
<feBlend mode="normal" in2="shape" result="effect1_innerShadow"/>
</filter>
<filter id="filter11_d" x="365" y="196" width="331" height="308" filterUnits="userSpaceOnUse" color-interpolation-filters="sRGB">
<feFlood flood-opacity="0" result="BackgroundImageFix"/>
<feColorMatrix in="SourceAlpha" type="matrix" values="0 0 0 0 0 0 0 0 0 0 0 0 0 0 0 0 0 0 127 0" result="hardAlpha"/>
<feOffset dy="1"/>
<feGaussianBlur stdDeviation="1"/>
<feColorMatrix type="matrix" values="0 0 0 0 0 0 0 0 0 0.2015 0 0 0 0 0.3875 0 0 0 0.1 0"/>
<feBlend mode="normal" in2="BackgroundImageFix" result="effect1_dropShadow"/>
<feBlend mode="normal" in="SourceGraphic" in2="effect1_dropShadow" result="shape"/>
</filter>
</defs>
</svg>
