<svg width="101" height="101" viewBox="0 0 101 101" fill="none" xmlns="http://www.w3.org/2000/svg">
<rect width="100" height="100" transform="translate(0.5 0.405273)" fill="white"/>
<rect opacity="0.2" x="30.7051" y="39.4387" width="46.2052" height="31.7837" rx="4.87575" fill="#3A86FF"/>
<path d="M32.0832 58.1736C31.6745 58.5451 31.6444 59.1776 32.0159 59.5862C32.3874 59.9949 33.0199 60.025 33.4285 59.6535L32.0832 58.1736ZM42.1517 50.3719L42.4264 49.4104C42.0936 49.3153 41.7352 49.3991 41.479 49.632L42.1517 50.3719ZM54.11 53.7886L53.8353 54.7501C54.1995 54.8542 54.5912 54.7435 54.8472 54.4643L54.11 53.7886ZM64.243 44.2143C64.6162 43.8072 64.5887 43.1746 64.1816 42.8014C63.7745 42.4282 63.1419 42.4557 62.7687 42.8628L64.243 44.2143ZM54.8472 54.4643L64.243 44.2143L62.7687 42.8628L53.3729 53.1128L54.8472 54.4643ZM41.877 51.3334L53.8353 54.7501L54.3847 52.8271L42.4264 49.4104L41.877 51.3334ZM33.4285 59.6535L42.8244 51.1118L41.479 49.632L32.0832 58.1736L33.4285 59.6535Z" fill="#3A86FF"/>
<rect x="26.5" y="36.4053" width="44.2052" height="29.7837" rx="3.87575" stroke="#220D4E" stroke-width="2"/>
</svg>
