<svg width="100" height="100" viewBox="0 0 100 100" fill="none" xmlns="http://www.w3.org/2000/svg">
<path opacity="0.2" d="M67.7679 34L53.9992 34.1977L40.2321 34L34 40.0548C34 40.0548 35.109 57.4286 39.8234 64.5145C43.8734 70.6088 51.9701 74.1896 53.965 75C55.9599 74.1896 64.1266 70.6022 68.1766 64.5145C72.891 57.4319 74 40.0548 74 40.0548L67.7679 34Z" fill="#3A86FF"/>
<path d="M49.9848 30.1976L49.9992 30.1978L50.0135 30.1976L63.3681 30.0058L68.9691 35.4474C68.9625 35.5322 68.955 35.6282 68.9464 35.7347C68.9074 36.2175 68.8463 36.9169 68.7582 37.7791C68.5821 39.5042 68.2987 41.8762 67.8697 44.4652C67.4403 47.0565 66.8675 49.8505 66.1155 52.4242C65.3598 55.011 64.4406 57.3131 63.3442 58.9604L63.344 58.9606C61.4305 61.8368 58.5096 64.1655 55.7678 65.8897C53.3407 67.416 51.1096 68.4344 49.9652 68.9174C48.8253 68.4351 46.6104 67.4186 44.1994 65.8936C41.4758 64.1708 38.5708 61.842 36.6563 58.961L36.656 58.9605C34.4314 55.6169 32.9984 49.7025 32.1303 44.4639C31.7013 41.8752 31.4179 39.5035 31.2418 37.7786C31.1537 36.9166 31.0926 36.2173 31.0536 35.7346C31.045 35.6281 31.0375 35.5322 31.031 35.4474L36.6319 30.0058L49.9848 30.1976Z" stroke="#220D4E" stroke-width="2" stroke-linecap="round"/>
<path d="M60 25L46.1367 25.1979L32.9118 25L26 32.448C26 32.448 25.9622 49.197 29.8887 58.5298C32.9118 65.7155 42.1189 72.1887 44.1275 73" stroke="#3A86FF" stroke-width="2" stroke-linecap="round"/>
<path d="M39.0978 42.9714L42.4119 49.1797C42.6416 49.6113 43.1995 49.9433 43.6589 49.9433H50.4184C50.8778 49.9433 51.0746 49.6113 50.8449 49.1797L47.498 42.9382C47.2683 42.5066 46.7105 42.1746 46.2511 42.1746H39.4916H39.4588C39.065 42.2078 38.8681 42.5398 39.0978 42.9714Z" stroke="#3A86FF" stroke-width="2" stroke-linecap="round" stroke-linejoin="round"/>
<path d="M51.9278 50.176L53.9292 53.8609C54.0605 54.1264 54.3886 54.3256 54.6839 54.3256L58.6867 54.2592C58.9492 54.2592 59.0804 54.06 58.9492 53.7945L56.9478 50.1096C56.8165 49.8441 56.4884 49.6449 56.1931 49.6449L52.7452 49.6733C52.3548 49.6765 51.723 49.7464 51.8846 50.1017C51.8957 50.126 51.91 50.1508 51.9278 50.176Z" stroke="#3A86FF" stroke-width="2" stroke-linecap="round" stroke-linejoin="round"/>
<path d="M51.9275 36.2324L47.9243 41.3119C47.6618 41.6439 47.629 42.2747 47.8587 42.7063L51.2056 48.8815C51.4353 49.3131 51.8291 49.3795 52.1244 49.0143L56.1604 43.9347C56.4229 43.6027 56.4557 42.9719 56.226 42.5403L52.8463 36.3652C52.715 36.1328 52.5182 36 52.3213 36C52.19 36 52.0588 36.0664 51.9275 36.2324Z" stroke="#3A86FF" stroke-width="2" stroke-linecap="round" stroke-linejoin="round"/>
<path d="M51.0085 50.2426L48.6133 53.2635C48.4493 53.4627 48.4165 53.8278 48.5805 54.0934L50.5819 57.7782C50.7132 58.0438 50.9756 58.077 51.1397 57.8446L53.5348 54.8237C53.6989 54.6246 53.7317 54.2594 53.5676 53.9938L51.5662 50.309C51.5554 50.2871 51.5428 50.2661 51.5289 50.2465C51.4098 50.0788 51.1216 50.0709 51.0085 50.2426V50.2426Z" stroke="#3A86FF" stroke-width="2" stroke-linecap="round" stroke-linejoin="round"/>
</svg>
