<svg width="101" height="101" viewBox="0 0 101 101" fill="none" xmlns="http://www.w3.org/2000/svg">
<rect width="100" height="100" transform="translate(0.5 0.405273)" fill="white"/>
<path d="M31.0294 57.5381C30.4771 57.5381 30.0294 57.9858 30.0294 58.5381C30.0294 59.0904 30.4771 59.5381 31.0294 59.5381L31.0294 57.5381ZM66.3016 40.3218L56.6164 46.6092L66.904 51.8531L66.3016 40.3218ZM31.0294 59.5381C39.1949 59.5381 45.4664 59.6106 50.5181 58.3298C55.6825 57.0205 59.5715 54.3058 63.0562 48.8798L61.3733 47.799C58.1418 52.8309 54.6632 55.2156 50.0266 56.3911C45.2772 57.5952 39.3141 57.5381 31.0294 57.5381L31.0294 59.5381Z" fill="#3A86FF"/>
<rect x="27.6585" y="35.9997" width="42.8412" height="28.8455" rx="3.87575" stroke="#220D4E" stroke-width="2"/>
<rect opacity="0.2" x="32.4219" y="40.4946" width="45.0783" height="31.0085" rx="4.87575" fill="#3A86FF"/>
</svg>
